<mxfile host="app.diagrams.net" modified="2022-04-11T21:50:09.890Z" agent="5.0 (Macintosh; Intel Mac OS X 10_15_7) AppleWebKit/537.36 (KHTML, like Gecko) Chrome/100.0.4896.75 Safari/537.36" etag="YYQrCtEMem_ygPd38_Jb" version="17.4.3" type="github" pages="4">
  <diagram id="-ZXCLa0k-xv4Mn8sI_rg" name="Generalized State Diagram">
    <mxGraphModel dx="1186" dy="646" grid="1" gridSize="10" guides="1" tooltips="1" connect="1" arrows="1" fold="1" page="1" pageScale="1" pageWidth="850" pageHeight="1100" math="0" shadow="0">
      <root>
        <mxCell id="0" />
        <mxCell id="1" parent="0" />
        <mxCell id="eaWsIIFRXc862yecBCqU-1" value="" style="ellipse;html=1;shape=startState;fillColor=#000000;strokeColor=#000000;rounded=1;shadow=0;comic=0;labelBackgroundColor=none;fontFamily=Verdana;fontSize=12;fontColor=#000000;align=center;direction=south;" parent="1" vertex="1">
          <mxGeometry x="250" y="310" width="30" height="30" as="geometry" />
        </mxCell>
        <mxCell id="eaWsIIFRXc862yecBCqU-2" value="StandByPhase" style="rounded=1;whiteSpace=wrap;html=1;arcSize=24;shadow=0;comic=0;labelBackgroundColor=none;fontFamily=Verdana;fontSize=12;align=center;" parent="1" vertex="1">
          <mxGeometry x="330" y="310" width="120" height="60" as="geometry" />
        </mxCell>
        <mxCell id="eaWsIIFRXc862yecBCqU-3" style="edgeStyle=orthogonalEdgeStyle;html=1;labelBackgroundColor=none;endArrow=open;endSize=8;strokeColor=#000000;fontFamily=Verdana;fontSize=12;align=left;rounded=0;exitX=0.427;exitY=0.144;exitDx=0;exitDy=0;exitPerimeter=0;" parent="1" source="eaWsIIFRXc862yecBCqU-1" edge="1">
          <mxGeometry relative="1" as="geometry">
            <mxPoint x="330" y="330" as="targetPoint" />
            <Array as="points">
              <mxPoint x="276" y="330" />
            </Array>
          </mxGeometry>
        </mxCell>
        <mxCell id="eaWsIIFRXc862yecBCqU-5" value="" style="endArrow=classic;html=1;rounded=0;strokeColor=#000000;exitX=1;exitY=0.25;exitDx=0;exitDy=0;entryX=0;entryY=0.25;entryDx=0;entryDy=0;" parent="1" source="eaWsIIFRXc862yecBCqU-2" target="eaWsIIFRXc862yecBCqU-6" edge="1">
          <mxGeometry width="50" height="50" relative="1" as="geometry">
            <mxPoint x="350" y="500" as="sourcePoint" />
            <mxPoint x="490" y="340" as="targetPoint" />
          </mxGeometry>
        </mxCell>
        <mxCell id="eaWsIIFRXc862yecBCqU-6" value="CheckoutPhase" style="rounded=1;whiteSpace=wrap;html=1;arcSize=24;shadow=0;comic=0;labelBackgroundColor=none;fontFamily=Verdana;fontSize=12;align=center;" parent="1" vertex="1">
          <mxGeometry x="520" y="310" width="120" height="60" as="geometry" />
        </mxCell>
        <mxCell id="eaWsIIFRXc862yecBCqU-7" value="" style="endArrow=classic;html=1;rounded=0;strokeColor=#000000;exitX=0;exitY=0.5;exitDx=0;exitDy=0;entryX=1;entryY=0.5;entryDx=0;entryDy=0;" parent="1" source="eaWsIIFRXc862yecBCqU-6" target="eaWsIIFRXc862yecBCqU-2" edge="1">
          <mxGeometry width="50" height="50" relative="1" as="geometry">
            <mxPoint x="510" y="500" as="sourcePoint" />
            <mxPoint x="560" y="450" as="targetPoint" />
          </mxGeometry>
        </mxCell>
        <mxCell id="eaWsIIFRXc862yecBCqU-9" value="" style="endArrow=classic;html=1;rounded=0;strokeColor=#000000;exitX=0.5;exitY=0;exitDx=0;exitDy=0;entryX=0.5;entryY=1;entryDx=0;entryDy=0;" parent="1" source="eaWsIIFRXc862yecBCqU-2" edge="1">
          <mxGeometry width="50" height="50" relative="1" as="geometry">
            <mxPoint x="460" y="292" as="sourcePoint" />
            <mxPoint x="390" y="220" as="targetPoint" />
            <Array as="points" />
          </mxGeometry>
        </mxCell>
        <mxCell id="eaWsIIFRXc862yecBCqU-10" value="" style="endArrow=classic;html=1;rounded=0;strokeColor=#000000;exitX=0.75;exitY=1;exitDx=0;exitDy=0;entryX=0.75;entryY=0;entryDx=0;entryDy=0;" parent="1" target="eaWsIIFRXc862yecBCqU-2" edge="1">
          <mxGeometry width="50" height="50" relative="1" as="geometry">
            <mxPoint x="420" y="220" as="sourcePoint" />
            <mxPoint x="500" y="200" as="targetPoint" />
          </mxGeometry>
        </mxCell>
        <mxCell id="eaWsIIFRXc862yecBCqU-11" value="" style="endArrow=classic;html=1;rounded=0;strokeColor=#000000;exitX=0.5;exitY=1;exitDx=0;exitDy=0;entryX=0;entryY=0.5;entryDx=0;entryDy=0;" parent="1" source="eaWsIIFRXc862yecBCqU-6" target="eaWsIIFRXc862yecBCqU-12" edge="1">
          <mxGeometry width="50" height="50" relative="1" as="geometry">
            <mxPoint x="500" y="390" as="sourcePoint" />
            <mxPoint x="580" y="510" as="targetPoint" />
            <Array as="points">
              <mxPoint x="580" y="430" />
            </Array>
          </mxGeometry>
        </mxCell>
        <mxCell id="eaWsIIFRXc862yecBCqU-12" value="End phase" style="rounded=1;whiteSpace=wrap;html=1;arcSize=24;shadow=0;comic=0;labelBackgroundColor=none;fontFamily=Verdana;fontSize=12;align=center;" parent="1" vertex="1">
          <mxGeometry x="630" y="400" width="120" height="60" as="geometry" />
        </mxCell>
        <mxCell id="eaWsIIFRXc862yecBCqU-19" value="" style="endArrow=classic;html=1;rounded=0;strokeColor=#000000;exitX=0.5;exitY=0;exitDx=0;exitDy=0;entryX=0.25;entryY=0;entryDx=0;entryDy=0;" parent="1" source="eaWsIIFRXc862yecBCqU-12" target="eaWsIIFRXc862yecBCqU-2" edge="1">
          <mxGeometry width="50" height="50" relative="1" as="geometry">
            <mxPoint x="490" y="340" as="sourcePoint" />
            <mxPoint x="360" y="280" as="targetPoint" />
            <Array as="points">
              <mxPoint x="690" y="150" />
              <mxPoint x="320" y="150" />
              <mxPoint x="320" y="280" />
              <mxPoint x="360" y="280" />
            </Array>
          </mxGeometry>
        </mxCell>
        <mxCell id="i2ksJJbB7Hy_UAuFXtkF-1" value="BagItem(softblock)" style="swimlane;childLayout=stackLayout;horizontal=1;startSize=30;horizontalStack=0;rounded=1;fontSize=14;fontStyle=0;strokeWidth=2;resizeParent=0;resizeLast=1;shadow=0;dashed=0;align=center;" parent="1" vertex="1">
          <mxGeometry x="684" y="632" width="160" height="80" as="geometry" />
        </mxCell>
        <mxCell id="i2ksJJbB7Hy_UAuFXtkF-2" value="entry/block()&#xa;entry/wait 5 seconds&#xa;exit/checkWeight" style="align=center;strokeColor=none;fillColor=none;spacingLeft=4;fontSize=12;verticalAlign=top;resizable=0;rotatable=0;part=1;" parent="i2ksJJbB7Hy_UAuFXtkF-1" vertex="1">
          <mxGeometry y="30" width="160" height="50" as="geometry" />
        </mxCell>
        <mxCell id="i2ksJJbB7Hy_UAuFXtkF-6" value="BagItem(hardblock):" style="swimlane;childLayout=stackLayout;horizontal=1;startSize=30;horizontalStack=0;rounded=1;fontSize=14;fontStyle=0;strokeWidth=2;resizeParent=0;resizeLast=1;shadow=0;dashed=0;align=center;" parent="1" vertex="1">
          <mxGeometry x="680" y="740" width="190" height="85" as="geometry" />
        </mxCell>
        <mxCell id="i2ksJJbB7Hy_UAuFXtkF-7" value="entry/notifyWeightDiscrepency()&#xa;do/Attendant resolves Discrepecny&#xa;Â " style="align=center;strokeColor=none;fillColor=none;spacingLeft=4;fontSize=12;verticalAlign=top;resizable=0;rotatable=0;part=1;" parent="i2ksJJbB7Hy_UAuFXtkF-6" vertex="1">
          <mxGeometry y="30" width="190" height="55" as="geometry" />
        </mxCell>
        <mxCell id="i2ksJJbB7Hy_UAuFXtkF-10" value="[WeightDiscrepency==true]" style="text;html=1;strokeColor=none;fillColor=none;align=center;verticalAlign=middle;whiteSpace=wrap;rounded=0;" parent="1" vertex="1">
          <mxGeometry x="690" y="710" width="110" height="30" as="geometry" />
        </mxCell>
        <mxCell id="i2ksJJbB7Hy_UAuFXtkF-12" style="edgeStyle=orthogonalEdgeStyle;rounded=0;orthogonalLoop=1;jettySize=auto;html=1;entryX=0.75;entryY=0;entryDx=0;entryDy=0;exitX=0.75;exitY=1;exitDx=0;exitDy=0;" parent="1" source="i2ksJJbB7Hy_UAuFXtkF-2" target="i2ksJJbB7Hy_UAuFXtkF-6" edge="1">
          <mxGeometry relative="1" as="geometry" />
        </mxCell>
        <mxCell id="i2ksJJbB7Hy_UAuFXtkF-13" value="Standby" style="swimlane;childLayout=stackLayout;horizontal=1;startSize=30;horizontalStack=0;rounded=1;fontSize=14;fontStyle=0;strokeWidth=2;resizeParent=0;resizeLast=1;shadow=0;dashed=0;align=center;" parent="1" vertex="1">
          <mxGeometry x="380" y="635" width="110" height="70" as="geometry" />
        </mxCell>
        <mxCell id="i2ksJJbB7Hy_UAuFXtkF-14" value="entry/unblock()&#xa;do/checkWeight()&#xa;" style="align=center;strokeColor=none;fillColor=none;spacingLeft=4;fontSize=12;verticalAlign=top;resizable=0;rotatable=0;part=1;" parent="i2ksJJbB7Hy_UAuFXtkF-13" vertex="1">
          <mxGeometry y="30" width="110" height="40" as="geometry" />
        </mxCell>
        <mxCell id="i2ksJJbB7Hy_UAuFXtkF-15" value="" style="endArrow=classic;html=1;rounded=0;exitX=1;exitY=0.25;exitDx=0;exitDy=0;entryX=0;entryY=0.25;entryDx=0;entryDy=0;" parent="1" source="i2ksJJbB7Hy_UAuFXtkF-13" target="i2ksJJbB7Hy_UAuFXtkF-1" edge="1">
          <mxGeometry width="50" height="50" relative="1" as="geometry">
            <mxPoint x="520" y="615" as="sourcePoint" />
            <mxPoint x="570" y="565" as="targetPoint" />
          </mxGeometry>
        </mxCell>
        <mxCell id="i2ksJJbB7Hy_UAuFXtkF-16" value="Customer Inputs an Item" style="text;html=1;strokeColor=none;fillColor=none;align=center;verticalAlign=middle;whiteSpace=wrap;rounded=0;" parent="1" vertex="1">
          <mxGeometry x="510" y="630" width="160" height="30" as="geometry" />
        </mxCell>
        <mxCell id="i2ksJJbB7Hy_UAuFXtkF-17" value="" style="endArrow=classic;html=1;rounded=0;exitX=0;exitY=0.5;exitDx=0;exitDy=0;entryX=1;entryY=0.5;entryDx=0;entryDy=0;" parent="1" source="i2ksJJbB7Hy_UAuFXtkF-2" target="i2ksJJbB7Hy_UAuFXtkF-14" edge="1">
          <mxGeometry width="50" height="50" relative="1" as="geometry">
            <mxPoint x="660" y="755" as="sourcePoint" />
            <mxPoint x="540" y="757" as="targetPoint" />
            <Array as="points">
              <mxPoint x="684" y="685" />
            </Array>
          </mxGeometry>
        </mxCell>
        <mxCell id="i2ksJJbB7Hy_UAuFXtkF-18" value="&lt;span style=&quot;color: rgb(0 , 0 , 0) ; font-family: &amp;#34;helvetica&amp;#34; ; font-size: 12px ; font-style: normal ; font-weight: 400 ; letter-spacing: normal ; text-align: center ; text-indent: 0px ; text-transform: none ; word-spacing: 0px ; background-color: rgb(248 , 249 , 250) ; display: inline ; float: none&quot;&gt;[WeightDiscrepency==false]&lt;/span&gt;" style="text;whiteSpace=wrap;html=1;" parent="1" vertex="1">
          <mxGeometry x="510" y="663" width="170" height="30" as="geometry" />
        </mxCell>
        <mxCell id="i2ksJJbB7Hy_UAuFXtkF-20" value="" style="endArrow=classic;html=1;rounded=0;exitX=0.75;exitY=1;exitDx=0;exitDy=0;entryX=0;entryY=0.25;entryDx=0;entryDy=0;" parent="1" source="i2ksJJbB7Hy_UAuFXtkF-14" target="i2ksJJbB7Hy_UAuFXtkF-6" edge="1">
          <mxGeometry width="50" height="50" relative="1" as="geometry">
            <mxPoint x="520" y="615" as="sourcePoint" />
            <mxPoint x="570" y="565" as="targetPoint" />
            <Array as="points">
              <mxPoint x="463" y="761" />
            </Array>
          </mxGeometry>
        </mxCell>
        <mxCell id="i2ksJJbB7Hy_UAuFXtkF-21" value="&lt;span style=&quot;color: rgb(0 , 0 , 0) ; font-family: &amp;#34;helvetica&amp;#34; ; font-size: 12px ; font-style: normal ; font-weight: 400 ; letter-spacing: normal ; text-align: center ; text-indent: 0px ; text-transform: none ; word-spacing: 0px ; background-color: rgb(248 , 249 , 250) ; display: inline ; float: none&quot;&gt;[WeightDiscrepency==false]&lt;/span&gt;" style="text;whiteSpace=wrap;html=1;" parent="1" vertex="1">
          <mxGeometry x="485" y="775" width="170" height="30" as="geometry" />
        </mxCell>
        <mxCell id="i2ksJJbB7Hy_UAuFXtkF-23" value="" style="endArrow=classic;html=1;rounded=0;exitX=0;exitY=0.5;exitDx=0;exitDy=0;entryX=0.5;entryY=1;entryDx=0;entryDy=0;" parent="1" source="i2ksJJbB7Hy_UAuFXtkF-7" target="i2ksJJbB7Hy_UAuFXtkF-14" edge="1">
          <mxGeometry width="50" height="50" relative="1" as="geometry">
            <mxPoint x="530" y="685" as="sourcePoint" />
            <mxPoint x="580" y="635" as="targetPoint" />
            <Array as="points">
              <mxPoint x="435" y="798" />
            </Array>
          </mxGeometry>
        </mxCell>
        <mxCell id="i2ksJJbB7Hy_UAuFXtkF-24" value="&lt;span style=&quot;color: rgb(0, 0, 0); font-family: helvetica; font-size: 12px; font-style: normal; font-weight: 400; letter-spacing: normal; text-align: center; text-indent: 0px; text-transform: none; word-spacing: 0px; background-color: rgb(248, 249, 250); display: inline; float: none;&quot;&gt;[WeightDiscrepency==true]&lt;/span&gt;" style="text;whiteSpace=wrap;html=1;" parent="1" vertex="1">
          <mxGeometry x="503" y="738" width="170" height="30" as="geometry" />
        </mxCell>
        <mxCell id="i2ksJJbB7Hy_UAuFXtkF-28" value="Checkout" style="swimlane;childLayout=stackLayout;horizontal=1;startSize=30;horizontalStack=0;rounded=1;fontSize=14;fontStyle=0;strokeWidth=2;resizeParent=0;resizeLast=1;shadow=0;dashed=0;align=center;" parent="1" vertex="1">
          <mxGeometry x="180" y="635" width="130" height="70" as="geometry" />
        </mxCell>
        <mxCell id="i2ksJJbB7Hy_UAuFXtkF-29" value="entry/block&#xa;do/PaymentMethods" style="align=center;strokeColor=none;fillColor=none;spacingLeft=4;fontSize=12;verticalAlign=top;resizable=0;rotatable=0;part=1;" parent="i2ksJJbB7Hy_UAuFXtkF-28" vertex="1">
          <mxGeometry y="30" width="130" height="40" as="geometry" />
        </mxCell>
        <mxCell id="i2ksJJbB7Hy_UAuFXtkF-40" value="" style="endArrow=classic;html=1;rounded=0;exitX=0;exitY=0;exitDx=0;exitDy=0;entryX=0.5;entryY=0;entryDx=0;entryDy=0;" parent="i2ksJJbB7Hy_UAuFXtkF-28" source="i2ksJJbB7Hy_UAuFXtkF-29" target="i2ksJJbB7Hy_UAuFXtkF-28" edge="1">
          <mxGeometry width="50" height="50" relative="1" as="geometry">
            <mxPoint x="220" y="5" as="sourcePoint" />
            <mxPoint x="20" y="-45" as="targetPoint" />
            <Array as="points">
              <mxPoint x="-20" y="30" />
              <mxPoint x="-20" y="-25" />
              <mxPoint x="65" y="-25" />
            </Array>
          </mxGeometry>
        </mxCell>
        <mxCell id="i2ksJJbB7Hy_UAuFXtkF-32" value="" style="endArrow=classic;html=1;rounded=0;entryX=0;entryY=0.75;entryDx=0;entryDy=0;exitX=1;exitY=0.75;exitDx=0;exitDy=0;" parent="1" source="i2ksJJbB7Hy_UAuFXtkF-29" target="i2ksJJbB7Hy_UAuFXtkF-14" edge="1">
          <mxGeometry width="50" height="50" relative="1" as="geometry">
            <mxPoint x="310" y="695" as="sourcePoint" />
            <mxPoint x="380" y="693" as="targetPoint" />
          </mxGeometry>
        </mxCell>
        <mxCell id="i2ksJJbB7Hy_UAuFXtkF-33" value="" style="endArrow=classic;html=1;rounded=0;exitX=0;exitY=0.25;exitDx=0;exitDy=0;entryX=1;entryY=0.25;entryDx=0;entryDy=0;" parent="1" source="i2ksJJbB7Hy_UAuFXtkF-13" target="i2ksJJbB7Hy_UAuFXtkF-28" edge="1">
          <mxGeometry width="50" height="50" relative="1" as="geometry">
            <mxPoint x="300" y="730" as="sourcePoint" />
            <mxPoint x="350" y="680" as="targetPoint" />
          </mxGeometry>
        </mxCell>
        <mxCell id="i2ksJJbB7Hy_UAuFXtkF-34" value="Proceed to Checkout" style="text;html=1;strokeColor=none;fillColor=none;align=center;verticalAlign=middle;whiteSpace=wrap;rounded=0;" parent="1" vertex="1">
          <mxGeometry x="300" y="620" width="90" height="30" as="geometry" />
        </mxCell>
        <mxCell id="i2ksJJbB7Hy_UAuFXtkF-35" value="Return to bagging" style="text;html=1;strokeColor=none;fillColor=none;align=center;verticalAlign=middle;whiteSpace=wrap;rounded=0;" parent="1" vertex="1">
          <mxGeometry x="300" y="663" width="90" height="30" as="geometry" />
        </mxCell>
        <mxCell id="i2ksJJbB7Hy_UAuFXtkF-36" value="" style="endArrow=classic;html=1;rounded=0;exitX=0.5;exitY=1;exitDx=0;exitDy=0;entryX=0.5;entryY=0;entryDx=0;entryDy=0;" parent="1" source="i2ksJJbB7Hy_UAuFXtkF-29" target="i2ksJJbB7Hy_UAuFXtkF-37" edge="1">
          <mxGeometry width="50" height="50" relative="1" as="geometry">
            <mxPoint x="250" y="780" as="sourcePoint" />
            <mxPoint x="245" y="770" as="targetPoint" />
          </mxGeometry>
        </mxCell>
        <mxCell id="i2ksJJbB7Hy_UAuFXtkF-37" value="EndCleanUp" style="swimlane;childLayout=stackLayout;horizontal=1;startSize=30;horizontalStack=0;rounded=1;fontSize=14;fontStyle=0;strokeWidth=2;resizeParent=0;resizeLast=1;shadow=0;dashed=0;align=center;" parent="1" vertex="1">
          <mxGeometry x="182.5" y="775" width="125" height="65" as="geometry" />
        </mxCell>
        <mxCell id="i2ksJJbB7Hy_UAuFXtkF-38" value="entry/returnAnyChange&#xa;entry/printReceipt&#xa;" style="align=center;strokeColor=none;fillColor=none;spacingLeft=4;fontSize=12;verticalAlign=top;resizable=0;rotatable=0;part=1;" parent="i2ksJJbB7Hy_UAuFXtkF-37" vertex="1">
          <mxGeometry y="30" width="125" height="35" as="geometry" />
        </mxCell>
        <mxCell id="i2ksJJbB7Hy_UAuFXtkF-41" value="Maintanance" style="swimlane;childLayout=stackLayout;horizontal=1;startSize=30;horizontalStack=0;rounded=1;fontSize=14;fontStyle=0;strokeWidth=2;resizeParent=0;resizeLast=1;shadow=0;dashed=0;align=center;" parent="1" vertex="1">
          <mxGeometry x="385" y="450" width="100" height="70" as="geometry" />
        </mxCell>
        <mxCell id="i2ksJJbB7Hy_UAuFXtkF-42" value="+entry/block&#xa;+do/AttendFixes" style="align=center;strokeColor=none;fillColor=none;spacingLeft=4;fontSize=12;verticalAlign=top;resizable=0;rotatable=0;part=1;" parent="i2ksJJbB7Hy_UAuFXtkF-41" vertex="1">
          <mxGeometry y="30" width="100" height="40" as="geometry" />
        </mxCell>
        <mxCell id="i2ksJJbB7Hy_UAuFXtkF-45" value="" style="endArrow=classic;html=1;rounded=0;exitX=0.5;exitY=0;exitDx=0;exitDy=0;entryX=0.5;entryY=1;entryDx=0;entryDy=0;" parent="1" source="i2ksJJbB7Hy_UAuFXtkF-13" target="i2ksJJbB7Hy_UAuFXtkF-42" edge="1">
          <mxGeometry width="50" height="50" relative="1" as="geometry">
            <mxPoint x="430" y="490" as="sourcePoint" />
            <mxPoint x="480" y="440" as="targetPoint" />
          </mxGeometry>
        </mxCell>
        <mxCell id="i2ksJJbB7Hy_UAuFXtkF-46" value="&lt;span style=&quot;color: rgb(0 , 0 , 0) ; font-family: &amp;#34;helvetica&amp;#34; ; font-size: 12px ; font-style: normal ; font-weight: 400 ; letter-spacing: normal ; text-align: center ; text-indent: 0px ; text-transform: none ; word-spacing: 0px ; background-color: rgb(248 , 249 , 250) ; display: inline ; float: none&quot;&gt;[RequiresMaintanance==true]&lt;/span&gt;" style="text;whiteSpace=wrap;html=1;" parent="1" vertex="1">
          <mxGeometry x="270" y="560" width="170" height="30" as="geometry" />
        </mxCell>
        <mxCell id="i2ksJJbB7Hy_UAuFXtkF-47" value="&lt;span style=&quot;color: rgb(0 , 0 , 0) ; font-family: &amp;#34;helvetica&amp;#34; ; font-size: 12px ; font-style: normal ; font-weight: 400 ; letter-spacing: normal ; text-align: center ; text-indent: 0px ; text-transform: none ; word-spacing: 0px ; background-color: rgb(248 , 249 , 250) ; display: inline ; float: none&quot;&gt;[RequiresMaintanance==false&lt;/span&gt;" style="text;whiteSpace=wrap;html=1;" parent="1" vertex="1">
          <mxGeometry x="290" y="422" width="170" height="30" as="geometry" />
        </mxCell>
        <mxCell id="i2ksJJbB7Hy_UAuFXtkF-48" value="" style="endArrow=classic;html=1;rounded=0;exitX=0.75;exitY=0;exitDx=0;exitDy=0;entryX=0.75;entryY=0;entryDx=0;entryDy=0;" parent="1" source="i2ksJJbB7Hy_UAuFXtkF-41" target="i2ksJJbB7Hy_UAuFXtkF-13" edge="1">
          <mxGeometry width="50" height="50" relative="1" as="geometry">
            <mxPoint x="430" y="580" as="sourcePoint" />
            <mxPoint x="460" y="420" as="targetPoint" />
            <Array as="points">
              <mxPoint x="460" y="430" />
              <mxPoint x="490" y="430" />
              <mxPoint x="490" y="450" />
              <mxPoint x="490" y="490" />
              <mxPoint x="490" y="530" />
              <mxPoint x="463" y="530" />
            </Array>
          </mxGeometry>
        </mxCell>
      </root>
    </mxGraphModel>
  </diagram>
  <diagram id="G1JGiKkkxIMLo0qI9T0r" name="Scanning/Bagging">
    <mxGraphModel dx="1455" dy="994" grid="1" gridSize="10" guides="1" tooltips="1" connect="1" arrows="1" fold="1" page="1" pageScale="1" pageWidth="850" pageHeight="1100" math="0" shadow="0">
      <root>
        <mxCell id="0XoCRNA-fFdHAsAMeYVR-0" />
        <mxCell id="0XoCRNA-fFdHAsAMeYVR-1" parent="0XoCRNA-fFdHAsAMeYVR-0" />
        <mxCell id="c2NtV0sda1ZvMEl48lzR-1" value="&lt;div&gt;&lt;span&gt;&lt;font style=&quot;font-size: 12px&quot;&gt;ProductNotFound&lt;/font&gt;&lt;/span&gt;&lt;/div&gt;&lt;div&gt;&lt;span&gt;&lt;font style=&quot;font-size: 12px&quot;&gt;&lt;br&gt;&lt;/font&gt;&lt;/span&gt;&lt;/div&gt;&lt;div&gt;&lt;span&gt;&lt;font style=&quot;font-size: 12px&quot;&gt;do/warn&lt;/font&gt;&lt;/span&gt;&lt;/div&gt;" style="rounded=1;whiteSpace=wrap;html=1;arcSize=24;shadow=0;comic=0;labelBackgroundColor=none;fontFamily=Verdana;fontSize=12;align=center;" parent="0XoCRNA-fFdHAsAMeYVR-1" vertex="1">
          <mxGeometry x="530" y="970" width="120" height="70" as="geometry" />
        </mxCell>
        <mxCell id="c2NtV0sda1ZvMEl48lzR-2" value="SelfCheckoutStation Blocked" style="rounded=1;whiteSpace=wrap;html=1;arcSize=24;shadow=0;comic=0;labelBackgroundColor=none;fontFamily=Verdana;fontSize=12;align=center;" parent="0XoCRNA-fFdHAsAMeYVR-1" vertex="1">
          <mxGeometry x="640" y="460" width="140" height="60" as="geometry" />
        </mxCell>
        <mxCell id="Cww2yrWLBD_yT8LeN-82-0" value="Pieces of Information we wanna keep track of-&amp;nbsp;&lt;br&gt;1. Total Costs&lt;br&gt;2. Input for Product info&lt;br&gt;2. a. PLU codes&lt;br&gt;2.b. Barcodes&lt;br&gt;2.c. Manually Searching Against the database (Can return)&amp;nbsp;&lt;br&gt;3. Verification of that input against the database&amp;nbsp;&lt;br&gt;3.a. Products are barcode&lt;br&gt;3.b. Products are PLU&amp;nbsp;&lt;br&gt;4. List of Verified Products (Things that are added to our cart)&amp;nbsp;&lt;br&gt;5. Scanners/Processes Blocked(Attendant)&amp;nbsp;&lt;br&gt;6. Verification involved with Scanners/Processes&amp;nbsp;&lt;br&gt;7. Scanners/Processes Blocked&amp;nbsp;&lt;br&gt;8. Scan Item without BAGGING??? (Attendant)&lt;br&gt;9. Scan and Bag Item.&lt;br&gt;" style="text;html=1;strokeColor=none;fillColor=none;align=center;verticalAlign=middle;whiteSpace=wrap;rounded=0;" parent="0XoCRNA-fFdHAsAMeYVR-1" vertex="1">
          <mxGeometry x="50" y="40" width="550" height="190" as="geometry" />
        </mxCell>
        <mxCell id="SoCCeywB3u38R2QnQMCU-8" style="edgeStyle=orthogonalEdgeStyle;rounded=0;orthogonalLoop=1;jettySize=auto;html=1;exitX=0.75;exitY=1;exitDx=0;exitDy=0;entryX=0.25;entryY=0;entryDx=0;entryDy=0;fontColor=#000000;" parent="0XoCRNA-fFdHAsAMeYVR-1" source="6MBmhTJW1s7knyYFLO1K-0" target="c2NtV0sda1ZvMEl48lzR-1" edge="1">
          <mxGeometry relative="1" as="geometry">
            <Array as="points">
              <mxPoint x="280" y="480" />
              <mxPoint x="280" y="610" />
              <mxPoint x="550" y="610" />
              <mxPoint x="550" y="900" />
            </Array>
          </mxGeometry>
        </mxCell>
        <mxCell id="L4R7rioD0R9FuL_Lsmgj-11" style="edgeStyle=orthogonalEdgeStyle;rounded=0;orthogonalLoop=1;jettySize=auto;html=1;exitX=0.25;exitY=1;exitDx=0;exitDy=0;entryX=0.092;entryY=0;entryDx=0;entryDy=0;entryPerimeter=0;fontFamily=Helvetica;" parent="0XoCRNA-fFdHAsAMeYVR-1" source="6MBmhTJW1s7knyYFLO1K-0" target="xRnRDYIn3ArZQHywkmsm-3" edge="1">
          <mxGeometry relative="1" as="geometry" />
        </mxCell>
        <mxCell id="6MBmhTJW1s7knyYFLO1K-0" value="Inputting Product Info" style="rounded=1;whiteSpace=wrap;html=1;arcSize=24;shadow=0;comic=0;labelBackgroundColor=none;fontFamily=Verdana;fontSize=12;align=center;" parent="0XoCRNA-fFdHAsAMeYVR-1" vertex="1">
          <mxGeometry x="170" y="420" width="120" height="60" as="geometry" />
        </mxCell>
        <mxCell id="jVk_5hOcIGzKOVY6H5p--3" style="edgeStyle=orthogonalEdgeStyle;rounded=0;orthogonalLoop=1;jettySize=auto;html=1;endArrow=openThin;endFill=0;" parent="0XoCRNA-fFdHAsAMeYVR-1" target="6MBmhTJW1s7knyYFLO1K-0" edge="1">
          <mxGeometry relative="1" as="geometry">
            <mxPoint x="80" y="370" as="sourcePoint" />
            <Array as="points">
              <mxPoint x="80" y="350" />
              <mxPoint x="80" y="385" />
              <mxPoint x="200" y="385" />
            </Array>
          </mxGeometry>
        </mxCell>
        <mxCell id="jVk_5hOcIGzKOVY6H5p--1" value="" style="shape=ellipse;html=1;fillColor=#000000;fontSize=18;fontColor=#ffffff;" parent="0XoCRNA-fFdHAsAMeYVR-1" vertex="1">
          <mxGeometry x="60" y="310" width="40" height="40" as="geometry" />
        </mxCell>
        <mxCell id="UhUHxP_FGDqcnMJL-cjD-5" value="Attendant Verification Required" style="rounded=1;whiteSpace=wrap;html=1;arcSize=24;shadow=0;comic=0;labelBackgroundColor=none;fontFamily=Verdana;fontSize=12;align=center;" parent="0XoCRNA-fFdHAsAMeYVR-1" vertex="1">
          <mxGeometry x="810" y="740" width="140" height="70" as="geometry" />
        </mxCell>
        <mxCell id="SoCCeywB3u38R2QnQMCU-5" style="edgeStyle=orthogonalEdgeStyle;rounded=0;orthogonalLoop=1;jettySize=auto;html=1;exitX=0;exitY=0.5;exitDx=0;exitDy=0;fontColor=#000000;entryX=0.75;entryY=0;entryDx=0;entryDy=0;" parent="0XoCRNA-fFdHAsAMeYVR-1" source="UhUHxP_FGDqcnMJL-cjD-6" target="6MBmhTJW1s7knyYFLO1K-0" edge="1">
          <mxGeometry relative="1" as="geometry">
            <mxPoint x="200" y="420" as="targetPoint" />
          </mxGeometry>
        </mxCell>
        <mxCell id="UhUHxP_FGDqcnMJL-cjD-6" value="SelfCheckoutStation Unblocked" style="rounded=1;whiteSpace=wrap;html=1;arcSize=24;shadow=0;comic=0;labelBackgroundColor=none;fontFamily=Verdana;fontSize=12;align=center;" parent="0XoCRNA-fFdHAsAMeYVR-1" vertex="1">
          <mxGeometry x="860" y="320" width="140" height="60" as="geometry" />
        </mxCell>
        <mxCell id="UhUHxP_FGDqcnMJL-cjD-7" value="" style="endArrow=classic;html=1;rounded=0;fontSize=13;exitX=1;exitY=0.5;exitDx=0;exitDy=0;entryX=0;entryY=0.5;entryDx=0;entryDy=0;edgeStyle=orthogonalEdgeStyle;" parent="0XoCRNA-fFdHAsAMeYVR-1" source="6MBmhTJW1s7knyYFLO1K-0" target="c2NtV0sda1ZvMEl48lzR-2" edge="1">
          <mxGeometry width="50" height="50" relative="1" as="geometry">
            <mxPoint x="399.9999999999999" y="480" as="sourcePoint" />
            <mxPoint x="401" y="600.49" as="targetPoint" />
          </mxGeometry>
        </mxCell>
        <mxCell id="UhUHxP_FGDqcnMJL-cjD-8" value="" style="endArrow=classic;html=1;rounded=0;fontSize=13;exitX=0.5;exitY=1;exitDx=0;exitDy=0;edgeStyle=orthogonalEdgeStyle;" parent="0XoCRNA-fFdHAsAMeYVR-1" source="c2NtV0sda1ZvMEl48lzR-2" edge="1">
          <mxGeometry width="50" height="50" relative="1" as="geometry">
            <mxPoint x="270" y="460" as="sourcePoint" />
            <mxPoint x="840" y="740" as="targetPoint" />
            <Array as="points">
              <mxPoint x="710" y="640" />
              <mxPoint x="840" y="640" />
              <mxPoint x="840" y="740" />
            </Array>
          </mxGeometry>
        </mxCell>
        <mxCell id="UhUHxP_FGDqcnMJL-cjD-11" value="weightChanged() [blocked] / weightDiscBlock()" style="text;html=1;align=center;verticalAlign=middle;resizable=0;points=[];autosize=1;strokeColor=none;fillColor=none;fontSize=13;" parent="0XoCRNA-fFdHAsAMeYVR-1" vertex="1">
          <mxGeometry x="330" y="430" width="280" height="20" as="geometry" />
        </mxCell>
        <mxCell id="xRnRDYIn3ArZQHywkmsm-2" value="From attendant:&lt;br&gt;1. Weight Corrections- &amp;gt; unblocked&lt;br&gt;2. Validated the bag-&amp;gt; unblocked&lt;br&gt;3. Removed a product-&amp;gt; Update Cart&lt;br&gt;4.&amp;nbsp;" style="text;html=1;strokeColor=none;fillColor=none;align=center;verticalAlign=middle;whiteSpace=wrap;rounded=0;" parent="0XoCRNA-fFdHAsAMeYVR-1" vertex="1">
          <mxGeometry x="560" y="160" width="260" height="30" as="geometry" />
        </mxCell>
        <mxCell id="SoCCeywB3u38R2QnQMCU-7" style="edgeStyle=orthogonalEdgeStyle;rounded=0;orthogonalLoop=1;jettySize=auto;html=1;exitX=0;exitY=0.5;exitDx=0;exitDy=0;fontColor=#000000;entryX=-0.033;entryY=0.367;entryDx=0;entryDy=0;entryPerimeter=0;" parent="0XoCRNA-fFdHAsAMeYVR-1" source="xRnRDYIn3ArZQHywkmsm-3" target="6MBmhTJW1s7knyYFLO1K-0" edge="1">
          <mxGeometry relative="1" as="geometry">
            <mxPoint x="30" y="440" as="targetPoint" />
            <Array as="points">
              <mxPoint x="40" y="840" />
              <mxPoint x="40" y="442" />
            </Array>
          </mxGeometry>
        </mxCell>
        <mxCell id="xRnRDYIn3ArZQHywkmsm-3" value="Customer Update Cart and Put Item in Bag&lt;span style=&quot;color: rgba(0 , 0 , 0 , 0) ; font-family: monospace ; font-size: 0px&quot;&gt;%3CmxGraphModel%3E%3Croot%3E%3CmxCell%20id%3D%220%22%2F%3E%3CmxCell%20id%3D%221%22%20parent%3D%220%22%2F%3E%3CmxCell%20id%3D%222%22%20value%3D%22SelfCheckoutStation%20Unblocked%22%20style%3D%22rounded%3D1%3BwhiteSpace%3Dwrap%3Bhtml%3D1%3BarcSize%3D24%3Bshadow%3D0%3Bcomic%3D0%3BlabelBackgroundColor%3Dnone%3BfontFamily%3DVerdana%3BfontSize%3D12%3Balign%3Dcenter%3B%22%20vertex%3D%221%22%20parent%3D%221%22%3E%3CmxGeometry%20x%3D%22850%22%20y%3D%22270%22%20width%3D%22140%22%20height%3D%2260%22%20as%3D%22geometry%22%2F%3E%3C%2FmxCell%3E%3C%2Froot%3E%3C%2FmxGraphModel%3E&lt;/span&gt;" style="rounded=1;whiteSpace=wrap;html=1;arcSize=24;shadow=0;comic=0;labelBackgroundColor=none;fontFamily=Verdana;fontSize=12;align=center;" parent="0XoCRNA-fFdHAsAMeYVR-1" vertex="1">
          <mxGeometry x="150" y="820" width="120" height="60" as="geometry" />
        </mxCell>
        <mxCell id="xRnRDYIn3ArZQHywkmsm-4" value="&lt;div&gt;&lt;span style=&quot;font-size: 13px&quot;&gt;useOwnBags() [blocked] / ownBagBlock()&lt;/span&gt;&lt;/div&gt;" style="text;html=1;strokeColor=none;fillColor=none;align=center;verticalAlign=middle;whiteSpace=wrap;rounded=0;" parent="0XoCRNA-fFdHAsAMeYVR-1" vertex="1">
          <mxGeometry x="310" y="480" width="270" height="40" as="geometry" />
        </mxCell>
        <mxCell id="xRnRDYIn3ArZQHywkmsm-5" value="removeFromCart() [! currentItemRemoved]/&lt;br&gt;weightDiscBlock()&lt;br&gt;&amp;nbsp;" style="text;html=1;strokeColor=none;fillColor=none;align=center;verticalAlign=middle;whiteSpace=wrap;rounded=0;" parent="0XoCRNA-fFdHAsAMeYVR-1" vertex="1">
          <mxGeometry x="320" y="520" width="250" height="40" as="geometry" />
        </mxCell>
        <mxCell id="xRnRDYIn3ArZQHywkmsm-7" value="&lt;span style=&quot;font-family: , , &amp;#34;sf mono&amp;#34; , &amp;#34;menlo&amp;#34; , &amp;#34;consolas&amp;#34; , &amp;#34;liberation mono&amp;#34; , monospace ; background-color: rgb(255 , 255 , 255)&quot;&gt;notifyWeightDiscBlock()&lt;/span&gt;" style="text;html=1;align=center;verticalAlign=middle;resizable=0;points=[];autosize=1;strokeColor=none;fillColor=none;" parent="0XoCRNA-fFdHAsAMeYVR-1" vertex="1">
          <mxGeometry x="715" y="570" width="140" height="20" as="geometry" />
        </mxCell>
        <mxCell id="xRnRDYIn3ArZQHywkmsm-8" value="&lt;span style=&quot;font-family: , , &amp;#34;sf mono&amp;#34; , &amp;#34;menlo&amp;#34; , &amp;#34;consolas&amp;#34; , &amp;#34;liberation mono&amp;#34; , monospace ; background-color: rgb(255 , 255 , 255)&quot;&gt;&lt;font color=&quot;#06040a&quot;&gt;notifyOwnBagBlock()&lt;/font&gt;&lt;/span&gt;" style="text;html=1;align=center;verticalAlign=middle;resizable=0;points=[];autosize=1;strokeColor=none;fillColor=none;" parent="0XoCRNA-fFdHAsAMeYVR-1" vertex="1">
          <mxGeometry x="715" y="600" width="130" height="20" as="geometry" />
        </mxCell>
        <mxCell id="Op-vRIp6tk5D0qFcNWY9-0" style="edgeStyle=orthogonalEdgeStyle;rounded=0;orthogonalLoop=1;jettySize=auto;html=1;exitX=0.5;exitY=1;exitDx=0;exitDy=0;" parent="0XoCRNA-fFdHAsAMeYVR-1" source="xRnRDYIn3ArZQHywkmsm-3" target="xRnRDYIn3ArZQHywkmsm-3" edge="1">
          <mxGeometry relative="1" as="geometry" />
        </mxCell>
        <mxCell id="kPiGWdUWr5EUuY7B8MKV-0" value="&lt;span style=&quot;color: rgb(0 , 0 , 0) ; font-family: &amp;#34;helvetica&amp;#34; ; font-size: 12px ; font-style: normal ; font-weight: 400 ; letter-spacing: normal ; text-align: left ; text-indent: 0px ; text-transform: none ; word-spacing: 0px ; background-color: rgb(248 , 249 , 250) ; display: inline ; float: none&quot;&gt;addToCart(-) [!blocked]&lt;/span&gt;" style="text;whiteSpace=wrap;html=1;" parent="0XoCRNA-fFdHAsAMeYVR-1" vertex="1">
          <mxGeometry x="10" y="650" width="160" height="30" as="geometry" />
        </mxCell>
        <mxCell id="kPiGWdUWr5EUuY7B8MKV-2" value="&lt;span style=&quot;color: rgb(0 , 0 , 0) ; font-family: &amp;#34;helvetica&amp;#34; ; font-size: 12px ; font-style: normal ; font-weight: 400 ; letter-spacing: normal ; text-align: left ; text-indent: 0px ; text-transform: none ; word-spacing: 0px ; background-color: rgb(248 , 249 , 250) ; display: inline ; float: none&quot;&gt;addToCart(-) [!blocked &amp;amp;&amp;amp; !isCheckingOut]&lt;/span&gt;" style="text;whiteSpace=wrap;html=1;" parent="0XoCRNA-fFdHAsAMeYVR-1" vertex="1">
          <mxGeometry x="500" y="315" width="230" height="30" as="geometry" />
        </mxCell>
        <mxCell id="kPiGWdUWr5EUuY7B8MKV-4" value="getProduct() [&lt;span style=&quot;color: rgb(36 , 41 , 47) ; background-color: rgb(255 , 255 , 255)&quot;&gt;!&lt;/span&gt;&lt;span class=&quot;pl-smi&quot; style=&quot;box-sizing: border-box ; color: rgb(36 , 41 , 47) ; background-color: rgb(255 , 255 , 255)&quot;&gt;ProductDatabases&lt;/span&gt;&lt;span style=&quot;color: rgb(36 , 41 , 47) ; background-color: rgb(255 , 255 , 255)&quot;&gt;.&lt;/span&gt;&lt;span class=&quot;pl-c1&quot; style=&quot;box-sizing: border-box ; background-color: rgb(255 , 255 , 255)&quot;&gt;PLU_PRODUCT_DATABASE&lt;/span&gt;&lt;span style=&quot;color: rgb(36 , 41 , 47) ; background-color: rgb(255 , 255 , 255)&quot;&gt;.&lt;/span&gt;&lt;span class=&quot;pl-en&quot; style=&quot;box-sizing: border-box ; background-color: rgb(255 , 255 , 255)&quot;&gt;containsKey&lt;/span&gt;&lt;span style=&quot;color: rgb(36 , 41 , 47) ; background-color: rgb(255 , 255 , 255)&quot;&gt;(-&lt;/span&gt;&lt;span style=&quot;color: rgb(36 , 41 , 47) ; background-color: rgb(255 , 255 , 255)&quot;&gt;)]&lt;/span&gt;" style="text;html=1;strokeColor=none;fillColor=none;align=center;verticalAlign=middle;whiteSpace=wrap;rounded=0;" parent="0XoCRNA-fFdHAsAMeYVR-1" vertex="1">
          <mxGeometry x="650" y="830" width="180" height="80" as="geometry" />
        </mxCell>
        <mxCell id="TauuJmtl5ajorpJXNui4-0" value="getProduct() [&lt;span style=&quot;color: rgb(36 , 41 , 47) ; background-color: rgb(255 , 255 , 255)&quot;&gt;!&lt;/span&gt;&lt;span class=&quot;pl-smi&quot; style=&quot;box-sizing: border-box ; color: rgb(36 , 41 , 47) ; background-color: rgb(255 , 255 , 255)&quot;&gt;ProductDatabases&lt;/span&gt;&lt;span style=&quot;color: rgb(36 , 41 , 47) ; background-color: rgb(255 , 255 , 255)&quot;&gt;.&lt;/span&gt;&lt;span class=&quot;pl-c1&quot; style=&quot;box-sizing: border-box ; background-color: rgb(255 , 255 , 255)&quot;&gt;&lt;font color=&quot;#24292f&quot;&gt;BARCODED_DATABASE.&lt;/font&gt;&lt;/span&gt;&lt;span class=&quot;pl-en&quot; style=&quot;box-sizing: border-box ; background-color: rgb(255 , 255 , 255)&quot;&gt;containsKey&lt;/span&gt;&lt;span style=&quot;color: rgb(36 , 41 , 47) ; background-color: rgb(255 , 255 , 255)&quot;&gt;(-&lt;/span&gt;&lt;span style=&quot;color: rgb(36 , 41 , 47) ; background-color: rgb(255 , 255 , 255)&quot;&gt;)]&lt;/span&gt;" style="text;html=1;strokeColor=none;fillColor=none;align=center;verticalAlign=middle;whiteSpace=wrap;rounded=0;" parent="0XoCRNA-fFdHAsAMeYVR-1" vertex="1">
          <mxGeometry x="650" y="890" width="180" height="80" as="geometry" />
        </mxCell>
        <mxCell id="L4R7rioD0R9FuL_Lsmgj-9" value="&lt;span style=&quot;color: rgb(0 , 0 , 0) ; font-family: &amp;#34;helvetica&amp;#34; ; font-size: 12px ; font-style: normal ; font-weight: 400 ; letter-spacing: normal ; text-align: left ; text-indent: 0px ; text-transform: none ; word-spacing: 0px ; background-color: rgb(248 , 249 , 250) ; display: inline ; float: none&quot;&gt;cartTotal.add()/&lt;br&gt;&lt;span style=&quot;font-family: &amp;#34;helvetica&amp;#34; ; text-align: center&quot;&gt;&amp;nbsp;[&lt;/span&gt;&lt;span class=&quot;pl-smi&quot; style=&quot;font-family: &amp;#34;helvetica&amp;#34; ; text-align: center ; box-sizing: border-box ; color: rgb(36 , 41 , 47) ; background-color: rgb(255 , 255 , 255)&quot;&gt;ProductDatabases&lt;/span&gt;&lt;span style=&quot;font-family: &amp;#34;helvetica&amp;#34; ; text-align: center ; color: rgb(36 , 41 , 47) ; background-color: rgb(255 , 255 , 255)&quot;&gt;.PLU_PRODUCT&lt;/span&gt;&lt;span class=&quot;pl-c1&quot; style=&quot;font-family: &amp;#34;helvetica&amp;#34; ; text-align: center ; box-sizing: border-box ; background-color: rgb(255 , 255 , 255)&quot;&gt;&lt;font color=&quot;#24292f&quot;&gt;_DATABASE.&lt;/font&gt;&lt;/span&gt;&lt;span class=&quot;pl-en&quot; style=&quot;font-family: &amp;#34;helvetica&amp;#34; ; text-align: center ; box-sizing: border-box ; background-color: rgb(255 , 255 , 255)&quot;&gt;containsKey&lt;/span&gt;&lt;span style=&quot;font-family: &amp;#34;helvetica&amp;#34; ; text-align: center ; color: rgb(36 , 41 , 47) ; background-color: rgb(255 , 255 , 255)&quot;&gt;(&lt;/span&gt;&lt;span style=&quot;font-family: &amp;#34;helvetica&amp;#34; ; text-align: center ; color: rgb(36 , 41 , 47) ; background-color: rgb(255 , 255 , 255)&quot;&gt;)]&lt;/span&gt;&lt;br&gt;&lt;/span&gt;" style="text;whiteSpace=wrap;html=1;fontColor=#000000;" parent="0XoCRNA-fFdHAsAMeYVR-1" vertex="1">
          <mxGeometry x="170" y="710" width="180" height="30" as="geometry" />
        </mxCell>
        <mxCell id="L4R7rioD0R9FuL_Lsmgj-10" value="&lt;span style=&quot;color: rgb(0 , 0 , 0) ; font-family: &amp;#34;helvetica&amp;#34; ; font-size: 12px ; font-style: normal ; font-weight: 400 ; letter-spacing: normal ; text-align: left ; text-indent: 0px ; text-transform: none ; word-spacing: 0px ; background-color: rgb(248 , 249 , 250) ; display: inline ; float: none&quot;&gt;cartTotal.add()/&lt;br&gt;&lt;span style=&quot;font-family: &amp;#34;helvetica&amp;#34; ; text-align: center&quot;&gt;&amp;nbsp;[&lt;/span&gt;&lt;span class=&quot;pl-smi&quot; style=&quot;font-family: &amp;#34;helvetica&amp;#34; ; text-align: center ; box-sizing: border-box ; color: rgb(36 , 41 , 47) ; background-color: rgb(255 , 255 , 255)&quot;&gt;ProductDatabases&lt;/span&gt;&lt;span style=&quot;font-family: &amp;#34;helvetica&amp;#34; ; text-align: center ; color: rgb(36 , 41 , 47) ; background-color: rgb(255 , 255 , 255)&quot;&gt;.&lt;/span&gt;&lt;span class=&quot;pl-c1&quot; style=&quot;font-family: &amp;#34;helvetica&amp;#34; ; text-align: center ; box-sizing: border-box ; background-color: rgb(255 , 255 , 255)&quot;&gt;&lt;font color=&quot;#24292f&quot;&gt;BARCODED_DATABASE.&lt;/font&gt;&lt;/span&gt;&lt;span class=&quot;pl-en&quot; style=&quot;font-family: &amp;#34;helvetica&amp;#34; ; text-align: center ; box-sizing: border-box ; background-color: rgb(255 , 255 , 255)&quot;&gt;containsKey&lt;/span&gt;&lt;span style=&quot;font-family: &amp;#34;helvetica&amp;#34; ; text-align: center ; color: rgb(36 , 41 , 47) ; background-color: rgb(255 , 255 , 255)&quot;&gt;(&lt;/span&gt;&lt;span style=&quot;font-family: &amp;#34;helvetica&amp;#34; ; text-align: center ; color: rgb(36 , 41 , 47) ; background-color: rgb(255 , 255 , 255)&quot;&gt;)]&lt;/span&gt;&lt;br&gt;&lt;/span&gt;" style="text;whiteSpace=wrap;html=1;fontColor=#000000;" parent="0XoCRNA-fFdHAsAMeYVR-1" vertex="1">
          <mxGeometry x="170" y="670" width="180" height="30" as="geometry" />
        </mxCell>
        <mxCell id="bQHse7SkxEHFzrkWaEbk-0" value="&lt;font style=&quot;font-size: 13px&quot;&gt;noWeightChecked() [blocked] / weightDiscBlock()&lt;/font&gt;" style="text;html=1;align=center;verticalAlign=middle;resizable=0;points=[];autosize=1;strokeColor=none;fillColor=none;" vertex="1" parent="0XoCRNA-fFdHAsAMeYVR-1">
          <mxGeometry x="320" y="410" width="300" height="20" as="geometry" />
        </mxCell>
        <mxCell id="E0W9Vz5jILQJv8BfUoVT-0" value="Attendant Update Cart&lt;span style=&quot;color: rgba(0 , 0 , 0 , 0) ; font-family: monospace ; font-size: 0px&quot;&gt;%3CmxGraphModel%3E%3Croot%3E%3CmxCell%20id%3D%220%22%2F%3E%3CmxCell%20id%3D%221%22%20parent%3D%220%22%2F%3E%3CmxCell%20id%3D%222%22%20value%3D%22SelfCheckoutStation%20Unblocked%22%20style%3D%22rounded%3D1%3BwhiteSpace%3Dwrap%3Bhtml%3D1%3BarcSize%3D24%3Bshadow%3D0%3Bcomic%3D0%3BlabelBackgroundColor%3Dnone%3BfontFamily%3DVerdana%3BfontSize%3D12%3Balign%3Dcenter%3B%22%20vertex%3D%221%22%20parent%3D%221%22%3E%3CmxGeometry%20x%3D%22850%22%20y%3D%22270%22%20width%3D%22140%22%20height%3D%2260%22%20as%3D%22geometry%22%2F%3E%3C%2FmxCell%3E%3C%2Froot%3E%3C%2FmxGraphModel%3E&lt;/span&gt;" style="rounded=1;whiteSpace=wrap;html=1;arcSize=24;shadow=0;comic=0;labelBackgroundColor=none;fontFamily=Verdana;fontSize=12;align=center;" vertex="1" parent="0XoCRNA-fFdHAsAMeYVR-1">
          <mxGeometry x="1155" y="570" width="120" height="60" as="geometry" />
        </mxCell>
        <mxCell id="zj5OEeDplQmlqf7tSki_-0" style="edgeStyle=orthogonalEdgeStyle;rounded=0;orthogonalLoop=1;jettySize=auto;html=1;entryX=0.5;entryY=1;entryDx=0;entryDy=0;fontColor=#06040A;exitX=1;exitY=0.5;exitDx=0;exitDy=0;" edge="1" parent="0XoCRNA-fFdHAsAMeYVR-1" target="E0W9Vz5jILQJv8BfUoVT-0">
          <mxGeometry relative="1" as="geometry">
            <mxPoint x="950" y="780" as="sourcePoint" />
            <mxPoint x="1320" y="870" as="targetPoint" />
          </mxGeometry>
        </mxCell>
        <mxCell id="n0YGnb2-kFpF1VveYtR8-0" value="&lt;span style=&quot;color: rgb(0 , 0 , 0) ; font-family: &amp;#34;helvetica&amp;#34; ; font-size: 12px ; font-style: normal ; font-weight: 400 ; letter-spacing: normal ; text-align: left ; text-indent: 0px ; text-transform: none ; word-spacing: 0px ; background-color: rgb(248 , 249 , 250) ; display: inline ; float: none&quot;&gt;AttendantRemovePurchasedItem() [!currentItemRemoved]/&amp;nbsp;&lt;br&gt;&lt;br&gt;&lt;/span&gt;" style="text;whiteSpace=wrap;html=1;fontColor=#000000;" vertex="1" parent="0XoCRNA-fFdHAsAMeYVR-1">
          <mxGeometry x="920" y="680" width="210" height="30" as="geometry" />
        </mxCell>
        <mxCell id="n0YGnb2-kFpF1VveYtR8-1" value="&lt;font color=&quot;#000000&quot;&gt;resetWeightOnScale()&lt;/font&gt;" style="text;html=1;align=center;verticalAlign=middle;resizable=0;points=[];autosize=1;strokeColor=none;fillColor=none;fontColor=#330033;" vertex="1" parent="0XoCRNA-fFdHAsAMeYVR-1">
          <mxGeometry x="1050" y="700" width="130" height="20" as="geometry" />
        </mxCell>
        <mxCell id="9fdqm5ELZwsWF8LVWFKY-0" style="edgeStyle=orthogonalEdgeStyle;rounded=0;orthogonalLoop=1;jettySize=auto;html=1;exitX=0.5;exitY=0;exitDx=0;exitDy=0;entryX=1;entryY=0.5;entryDx=0;entryDy=0;fontColor=#06040A;" edge="1" parent="0XoCRNA-fFdHAsAMeYVR-1" source="E0W9Vz5jILQJv8BfUoVT-0" target="UhUHxP_FGDqcnMJL-cjD-6">
          <mxGeometry relative="1" as="geometry">
            <mxPoint x="1630" y="710" as="sourcePoint" />
            <mxPoint x="1270" y="420.0000000000001" as="targetPoint" />
          </mxGeometry>
        </mxCell>
        <mxCell id="FxiHPbg_gUEgGVhlmS2Z-0" value="" style="endArrow=classic;html=1;rounded=0;fontSize=13;entryX=0.5;entryY=1;entryDx=0;entryDy=0;exitX=0.5;exitY=0;exitDx=0;exitDy=0;" edge="1" parent="0XoCRNA-fFdHAsAMeYVR-1" source="UhUHxP_FGDqcnMJL-cjD-5" target="UhUHxP_FGDqcnMJL-cjD-6">
          <mxGeometry width="50" height="50" relative="1" as="geometry">
            <mxPoint x="1130" y="620" as="sourcePoint" />
            <mxPoint x="1200" y="450.0000000000001" as="targetPoint" />
          </mxGeometry>
        </mxCell>
        <mxCell id="FxiHPbg_gUEgGVhlmS2Z-1" value="unblock()" style="text;html=1;align=center;verticalAlign=middle;resizable=0;points=[];autosize=1;strokeColor=none;fillColor=none;fontSize=13;fontColor=#000000;" vertex="1" parent="0XoCRNA-fFdHAsAMeYVR-1">
          <mxGeometry x="920" y="520" width="70" height="20" as="geometry" />
        </mxCell>
        <mxCell id="FxiHPbg_gUEgGVhlmS2Z-2" value="unblock()" style="text;html=1;align=center;verticalAlign=middle;resizable=0;points=[];autosize=1;strokeColor=none;fillColor=none;fontSize=13;fontColor=#000000;" vertex="1" parent="0XoCRNA-fFdHAsAMeYVR-1">
          <mxGeometry x="1100" y="370" width="70" height="20" as="geometry" />
        </mxCell>
      </root>
    </mxGraphModel>
  </diagram>
  <diagram name="Copy of Scanning/Bagging" id="Bi2dVXNV6WFTIEATySSP">
    <mxGraphModel dx="1455" dy="994" grid="1" gridSize="10" guides="1" tooltips="1" connect="1" arrows="1" fold="1" page="1" pageScale="1" pageWidth="850" pageHeight="1100" math="0" shadow="0">
      <root>
        <mxCell id="fTOtLGZc1tBef4jWmARQ-0" />
        <mxCell id="fTOtLGZc1tBef4jWmARQ-1" parent="fTOtLGZc1tBef4jWmARQ-0" />
        <mxCell id="fTOtLGZc1tBef4jWmARQ-2" style="edgeStyle=orthogonalEdgeStyle;rounded=0;orthogonalLoop=1;jettySize=auto;html=1;exitX=0.5;exitY=0;exitDx=0;exitDy=0;entryX=1;entryY=0.5;entryDx=0;entryDy=0;fontColor=#06040A;" parent="fTOtLGZc1tBef4jWmARQ-1" source="fTOtLGZc1tBef4jWmARQ-3" target="fTOtLGZc1tBef4jWmARQ-14" edge="1">
          <mxGeometry relative="1" as="geometry" />
        </mxCell>
        <mxCell id="fTOtLGZc1tBef4jWmARQ-3" value="Attendant Update Cart&lt;span style=&quot;color: rgba(0 , 0 , 0 , 0) ; font-family: monospace ; font-size: 0px&quot;&gt;%3CmxGraphModel%3E%3Croot%3E%3CmxCell%20id%3D%220%22%2F%3E%3CmxCell%20id%3D%221%22%20parent%3D%220%22%2F%3E%3CmxCell%20id%3D%222%22%20value%3D%22SelfCheckoutStation%20Unblocked%22%20style%3D%22rounded%3D1%3BwhiteSpace%3Dwrap%3Bhtml%3D1%3BarcSize%3D24%3Bshadow%3D0%3Bcomic%3D0%3BlabelBackgroundColor%3Dnone%3BfontFamily%3DVerdana%3BfontSize%3D12%3Balign%3Dcenter%3B%22%20vertex%3D%221%22%20parent%3D%221%22%3E%3CmxGeometry%20x%3D%22850%22%20y%3D%22270%22%20width%3D%22140%22%20height%3D%2260%22%20as%3D%22geometry%22%2F%3E%3C%2FmxCell%3E%3C%2Froot%3E%3C%2FmxGraphModel%3E&lt;/span&gt;" style="rounded=1;whiteSpace=wrap;html=1;arcSize=24;shadow=0;comic=0;labelBackgroundColor=none;fontFamily=Verdana;fontSize=12;align=center;" parent="fTOtLGZc1tBef4jWmARQ-1" vertex="1">
          <mxGeometry x="1570" y="710" width="120" height="60" as="geometry" />
        </mxCell>
        <mxCell id="fTOtLGZc1tBef4jWmARQ-4" value="&lt;div&gt;&lt;span&gt;&lt;font style=&quot;font-size: 12px&quot;&gt;ProductNotFound&lt;/font&gt;&lt;/span&gt;&lt;/div&gt;&lt;div&gt;&lt;span&gt;&lt;font style=&quot;font-size: 12px&quot;&gt;&lt;br&gt;&lt;/font&gt;&lt;/span&gt;&lt;/div&gt;&lt;div&gt;&lt;span&gt;&lt;font style=&quot;font-size: 12px&quot;&gt;do/warn&lt;/font&gt;&lt;/span&gt;&lt;/div&gt;" style="rounded=1;whiteSpace=wrap;html=1;arcSize=24;shadow=0;comic=0;labelBackgroundColor=none;fontFamily=Verdana;fontSize=12;align=center;" parent="fTOtLGZc1tBef4jWmARQ-1" vertex="1">
          <mxGeometry x="450" y="760" width="120" height="70" as="geometry" />
        </mxCell>
        <mxCell id="fTOtLGZc1tBef4jWmARQ-5" value="SelfCheckoutStation Blocked" style="rounded=1;whiteSpace=wrap;html=1;arcSize=24;shadow=0;comic=0;labelBackgroundColor=none;fontFamily=Verdana;fontSize=12;align=center;" parent="fTOtLGZc1tBef4jWmARQ-1" vertex="1">
          <mxGeometry x="860" y="520" width="140" height="60" as="geometry" />
        </mxCell>
        <mxCell id="fTOtLGZc1tBef4jWmARQ-6" value="Pieces of Information we wanna keep track of-&amp;nbsp;&lt;br&gt;1. Total Costs&lt;br&gt;2. Input for Product info&lt;br&gt;2. a. PLU codes&lt;br&gt;2.b. Barcodes&lt;br&gt;2.c. Manually Searching Against the database (Can return)&amp;nbsp;&lt;br&gt;3. Verification of that input against the database&amp;nbsp;&lt;br&gt;3.a. Products are barcode&lt;br&gt;3.b. Products are PLU&amp;nbsp;&lt;br&gt;4. List of Verified Products (Things that are added to our cart)&amp;nbsp;&lt;br&gt;5. Scanners/Processes Blocked(Attendant)&amp;nbsp;&lt;br&gt;6. Verification involved with Scanners/Processes&amp;nbsp;&lt;br&gt;7. Scanners/Processes Blocked&amp;nbsp;&lt;br&gt;8. Scan Item without BAGGING??? (Attendant)&lt;br&gt;9. Scan and Bag Item.&lt;br&gt;" style="text;html=1;strokeColor=none;fillColor=none;align=center;verticalAlign=middle;whiteSpace=wrap;rounded=0;" parent="fTOtLGZc1tBef4jWmARQ-1" vertex="1">
          <mxGeometry x="350" y="100" width="550" height="190" as="geometry" />
        </mxCell>
        <mxCell id="dCAKsQjPwPG2Ijs0Jf62-8" style="rounded=0;orthogonalLoop=1;jettySize=auto;html=1;exitX=0.75;exitY=1;exitDx=0;exitDy=0;entryX=0;entryY=0;entryDx=0;entryDy=0;fontColor=#000000;" parent="fTOtLGZc1tBef4jWmARQ-1" source="fTOtLGZc1tBef4jWmARQ-7" edge="1">
          <mxGeometry relative="1" as="geometry" />
        </mxCell>
        <mxCell id="fTOtLGZc1tBef4jWmARQ-7" value="Inputting Product Info" style="rounded=1;whiteSpace=wrap;html=1;arcSize=24;shadow=0;comic=0;labelBackgroundColor=none;fontFamily=Verdana;fontSize=12;align=center;" parent="fTOtLGZc1tBef4jWmARQ-1" vertex="1">
          <mxGeometry x="440" y="490" width="120" height="60" as="geometry" />
        </mxCell>
        <mxCell id="fTOtLGZc1tBef4jWmARQ-8" style="edgeStyle=orthogonalEdgeStyle;rounded=0;orthogonalLoop=1;jettySize=auto;html=1;endArrow=openThin;endFill=0;" parent="fTOtLGZc1tBef4jWmARQ-1" target="fTOtLGZc1tBef4jWmARQ-7" edge="1">
          <mxGeometry relative="1" as="geometry">
            <mxPoint x="380" y="430" as="sourcePoint" />
            <Array as="points">
              <mxPoint x="380" y="410" />
              <mxPoint x="380" y="445" />
              <mxPoint x="500" y="445" />
            </Array>
          </mxGeometry>
        </mxCell>
        <mxCell id="fTOtLGZc1tBef4jWmARQ-9" value="" style="shape=ellipse;html=1;fillColor=#000000;fontSize=18;fontColor=#ffffff;" parent="fTOtLGZc1tBef4jWmARQ-1" vertex="1">
          <mxGeometry x="360" y="370" width="40" height="40" as="geometry" />
        </mxCell>
        <mxCell id="fTOtLGZc1tBef4jWmARQ-10" value="" style="endArrow=none;html=1;rounded=0;fontSize=12;exitX=0;exitY=0.429;exitDx=0;exitDy=0;entryX=1;entryY=0.414;entryDx=0;entryDy=0;exitPerimeter=0;entryPerimeter=0;" parent="fTOtLGZc1tBef4jWmARQ-1" source="fTOtLGZc1tBef4jWmARQ-4" target="fTOtLGZc1tBef4jWmARQ-4" edge="1">
          <mxGeometry width="50" height="50" relative="1" as="geometry">
            <mxPoint x="640" y="680" as="sourcePoint" />
            <mxPoint x="570" y="706" as="targetPoint" />
          </mxGeometry>
        </mxCell>
        <mxCell id="fTOtLGZc1tBef4jWmARQ-11" value="" style="endArrow=classic;html=1;rounded=0;fontSize=13;exitX=0.5;exitY=1;exitDx=0;exitDy=0;entryX=0.425;entryY=0.007;entryDx=0;entryDy=0;entryPerimeter=0;" parent="fTOtLGZc1tBef4jWmARQ-1" source="fTOtLGZc1tBef4jWmARQ-7" target="fTOtLGZc1tBef4jWmARQ-4" edge="1">
          <mxGeometry width="50" height="50" relative="1" as="geometry">
            <mxPoint x="500" y="640" as="sourcePoint" />
            <mxPoint x="550" y="590" as="targetPoint" />
          </mxGeometry>
        </mxCell>
        <mxCell id="fTOtLGZc1tBef4jWmARQ-12" style="edgeStyle=orthogonalEdgeStyle;rounded=0;orthogonalLoop=1;jettySize=auto;html=1;entryX=0;entryY=0.5;entryDx=0;entryDy=0;fontColor=#06040A;exitX=1;exitY=0.5;exitDx=0;exitDy=0;" parent="fTOtLGZc1tBef4jWmARQ-1" source="fTOtLGZc1tBef4jWmARQ-13" target="fTOtLGZc1tBef4jWmARQ-3" edge="1">
          <mxGeometry relative="1" as="geometry">
            <mxPoint x="1290" y="740" as="sourcePoint" />
          </mxGeometry>
        </mxCell>
        <mxCell id="fTOtLGZc1tBef4jWmARQ-13" value="Attendant Verification Required" style="rounded=1;whiteSpace=wrap;html=1;arcSize=24;shadow=0;comic=0;labelBackgroundColor=none;fontFamily=Verdana;fontSize=12;align=center;" parent="fTOtLGZc1tBef4jWmARQ-1" vertex="1">
          <mxGeometry x="1060" y="620" width="140" height="60" as="geometry" />
        </mxCell>
        <mxCell id="fTOtLGZc1tBef4jWmARQ-14" value="SelfCheckoutStation Unblocked" style="rounded=1;whiteSpace=wrap;html=1;arcSize=24;shadow=0;comic=0;labelBackgroundColor=none;fontFamily=Verdana;fontSize=12;align=center;" parent="fTOtLGZc1tBef4jWmARQ-1" vertex="1">
          <mxGeometry x="1130" y="390" width="140" height="60" as="geometry" />
        </mxCell>
        <mxCell id="fTOtLGZc1tBef4jWmARQ-15" value="" style="endArrow=classic;html=1;rounded=0;fontSize=13;exitX=1;exitY=0.5;exitDx=0;exitDy=0;entryX=0;entryY=0.5;entryDx=0;entryDy=0;" parent="fTOtLGZc1tBef4jWmARQ-1" source="fTOtLGZc1tBef4jWmARQ-7" target="fTOtLGZc1tBef4jWmARQ-5" edge="1">
          <mxGeometry width="50" height="50" relative="1" as="geometry">
            <mxPoint x="699.9999999999999" y="540" as="sourcePoint" />
            <mxPoint x="701" y="660.49" as="targetPoint" />
          </mxGeometry>
        </mxCell>
        <mxCell id="fTOtLGZc1tBef4jWmARQ-16" value="" style="endArrow=classic;html=1;rounded=0;fontSize=13;exitX=0.5;exitY=1;exitDx=0;exitDy=0;entryX=1.007;entryY=0.05;entryDx=0;entryDy=0;entryPerimeter=0;" parent="fTOtLGZc1tBef4jWmARQ-1" source="fTOtLGZc1tBef4jWmARQ-5" target="fTOtLGZc1tBef4jWmARQ-23" edge="1">
          <mxGeometry width="50" height="50" relative="1" as="geometry">
            <mxPoint x="570" y="520" as="sourcePoint" />
            <mxPoint x="820" y="520" as="targetPoint" />
          </mxGeometry>
        </mxCell>
        <mxCell id="fTOtLGZc1tBef4jWmARQ-17" value="" style="endArrow=classic;html=1;rounded=0;fontSize=13;" parent="fTOtLGZc1tBef4jWmARQ-1" edge="1">
          <mxGeometry width="50" height="50" relative="1" as="geometry">
            <mxPoint x="1120" y="420" as="sourcePoint" />
            <mxPoint x="540" y="480" as="targetPoint" />
            <Array as="points">
              <mxPoint x="1070" y="420" />
              <mxPoint x="540" y="420" />
            </Array>
          </mxGeometry>
        </mxCell>
        <mxCell id="fTOtLGZc1tBef4jWmARQ-18" value="weightChanged() [blocked] / weightDiscBlock()" style="text;html=1;align=center;verticalAlign=middle;resizable=0;points=[];autosize=1;strokeColor=none;fillColor=none;fontSize=13;" parent="fTOtLGZc1tBef4jWmARQ-1" vertex="1">
          <mxGeometry x="570" y="490" width="280" height="20" as="geometry" />
        </mxCell>
        <mxCell id="fTOtLGZc1tBef4jWmARQ-19" value="From attendant:&lt;br&gt;1. Weight Corrections- &amp;gt; unblocked&lt;br&gt;2. Validated the bag-&amp;gt; unblocked&lt;br&gt;3. Removed a product-&amp;gt; Update Cart&lt;br&gt;4.&amp;nbsp;" style="text;html=1;strokeColor=none;fillColor=none;align=center;verticalAlign=middle;whiteSpace=wrap;rounded=0;" parent="fTOtLGZc1tBef4jWmARQ-1" vertex="1">
          <mxGeometry x="890" y="110" width="260" height="30" as="geometry" />
        </mxCell>
        <mxCell id="fTOtLGZc1tBef4jWmARQ-21" value="&lt;div&gt;&lt;span style=&quot;font-size: 13px&quot;&gt;useOwnBags() [blocked] / ownBagBlock()&lt;/span&gt;&lt;/div&gt;" style="text;html=1;strokeColor=none;fillColor=none;align=center;verticalAlign=middle;whiteSpace=wrap;rounded=0;" parent="fTOtLGZc1tBef4jWmARQ-1" vertex="1">
          <mxGeometry x="570" y="540" width="270" height="30" as="geometry" />
        </mxCell>
        <mxCell id="fTOtLGZc1tBef4jWmARQ-22" value="removeFromCart() [! currentItemRemoved]/&lt;br&gt;weightDiscBlock()&lt;br&gt;&amp;nbsp;" style="text;html=1;strokeColor=none;fillColor=none;align=center;verticalAlign=middle;whiteSpace=wrap;rounded=0;" parent="fTOtLGZc1tBef4jWmARQ-1" vertex="1">
          <mxGeometry x="590" y="450" width="250" height="40" as="geometry" />
        </mxCell>
        <mxCell id="fTOtLGZc1tBef4jWmARQ-23" value="&lt;span style=&quot;font-family: , , &amp;#34;sf mono&amp;#34; , &amp;#34;menlo&amp;#34; , &amp;#34;consolas&amp;#34; , &amp;#34;liberation mono&amp;#34; , monospace ; background-color: rgb(255 , 255 , 255)&quot;&gt;notifyWeightDiscBlock() / AttendantGUI()&lt;/span&gt;" style="text;html=1;align=center;verticalAlign=middle;resizable=0;points=[];autosize=1;strokeColor=none;fillColor=none;" parent="fTOtLGZc1tBef4jWmARQ-1" vertex="1">
          <mxGeometry x="830" y="640" width="230" height="20" as="geometry" />
        </mxCell>
        <mxCell id="fTOtLGZc1tBef4jWmARQ-24" value="&lt;span style=&quot;font-family: , , &amp;#34;sf mono&amp;#34; , &amp;#34;menlo&amp;#34; , &amp;#34;consolas&amp;#34; , &amp;#34;liberation mono&amp;#34; , monospace ; background-color: rgb(255 , 255 , 255)&quot;&gt;&lt;font color=&quot;#06040a&quot;&gt;notifyOwnBagBlock() / AttendantGUI()&lt;/font&gt;&lt;/span&gt;" style="text;html=1;align=center;verticalAlign=middle;resizable=0;points=[];autosize=1;strokeColor=none;fillColor=none;" parent="fTOtLGZc1tBef4jWmARQ-1" vertex="1">
          <mxGeometry x="850" y="620" width="130" height="20" as="geometry" />
        </mxCell>
        <mxCell id="NH1Lx-iVMqcuKH-KqPFO-0" value="&lt;p class=&quot;p1&quot; style=&quot;margin: 0px ; font-stretch: normal ; line-height: normal ; font-family: &amp;#34;menlo&amp;#34;&quot;&gt;&lt;br&gt;&lt;/p&gt;" style="text;html=1;align=center;verticalAlign=middle;resizable=0;points=[];autosize=1;strokeColor=none;fillColor=none;fontColor=#330033;" parent="fTOtLGZc1tBef4jWmARQ-1" vertex="1">
          <mxGeometry x="1356" y="660" width="20" height="20" as="geometry" />
        </mxCell>
        <mxCell id="dCAKsQjPwPG2Ijs0Jf62-5" value="&lt;span style=&quot;color: rgb(0 , 0 , 0) ; font-family: &amp;#34;helvetica&amp;#34; ; font-size: 12px ; font-style: normal ; font-weight: 400 ; letter-spacing: normal ; text-align: left ; text-indent: 0px ; text-transform: none ; word-spacing: 0px ; background-color: rgb(248 , 249 , 250) ; display: inline ; float: none&quot;&gt;AttendantRemovePurchasedItem() [!currentItemRemoved]/&amp;nbsp;&lt;br&gt;&lt;br&gt;&lt;/span&gt;" style="text;whiteSpace=wrap;html=1;fontColor=#000000;" parent="fTOtLGZc1tBef4jWmARQ-1" vertex="1">
          <mxGeometry x="1393" y="630" width="210" height="30" as="geometry" />
        </mxCell>
        <mxCell id="NH1Lx-iVMqcuKH-KqPFO-1" value="&lt;font color=&quot;#000000&quot;&gt;resetWeightOnScale()&lt;/font&gt;" style="text;html=1;align=center;verticalAlign=middle;resizable=0;points=[];autosize=1;strokeColor=none;fillColor=none;fontColor=#330033;" parent="fTOtLGZc1tBef4jWmARQ-1" vertex="1">
          <mxGeometry x="1393" y="670" width="130" height="20" as="geometry" />
        </mxCell>
        <mxCell id="NH1Lx-iVMqcuKH-KqPFO-3" value="" style="endArrow=classic;html=1;rounded=0;fontSize=13;entryX=0.5;entryY=1;entryDx=0;entryDy=0;exitX=0.5;exitY=0;exitDx=0;exitDy=0;" parent="fTOtLGZc1tBef4jWmARQ-1" source="fTOtLGZc1tBef4jWmARQ-13" target="fTOtLGZc1tBef4jWmARQ-14" edge="1">
          <mxGeometry width="50" height="50" relative="1" as="geometry">
            <mxPoint x="1200" y="690" as="sourcePoint" />
            <mxPoint x="1423" y="680" as="targetPoint" />
          </mxGeometry>
        </mxCell>
        <mxCell id="NH1Lx-iVMqcuKH-KqPFO-5" value="&lt;font color=&quot;#000000&quot;&gt;unblock()&lt;/font&gt;" style="text;html=1;align=center;verticalAlign=middle;resizable=0;points=[];autosize=1;strokeColor=none;fillColor=none;fontColor=#330033;" parent="fTOtLGZc1tBef4jWmARQ-1" vertex="1">
          <mxGeometry x="1195" y="520" width="70" height="20" as="geometry" />
        </mxCell>
        <mxCell id="NH1Lx-iVMqcuKH-KqPFO-6" value="&lt;font color=&quot;#000000&quot;&gt;unblock()&lt;/font&gt;" style="text;html=1;align=center;verticalAlign=middle;resizable=0;points=[];autosize=1;strokeColor=none;fillColor=none;fontColor=#330033;" parent="fTOtLGZc1tBef4jWmARQ-1" vertex="1">
          <mxGeometry x="1410" y="430" width="70" height="20" as="geometry" />
        </mxCell>
        <mxCell id="NH1Lx-iVMqcuKH-KqPFO-8" value="&lt;font color=&quot;#000000&quot;&gt;[!blocked &amp;amp;&amp;amp; !isCheckingout]&lt;br&gt;[!blocked &amp;amp;&amp;amp; !isCheckingout]&lt;/font&gt;" style="text;html=1;align=center;verticalAlign=middle;resizable=0;points=[];autosize=1;strokeColor=none;fillColor=none;fontColor=#330033;" parent="fTOtLGZc1tBef4jWmARQ-1" vertex="1">
          <mxGeometry x="775" y="385" width="170" height="30" as="geometry" />
        </mxCell>
        <mxCell id="NH1Lx-iVMqcuKH-KqPFO-13" value="noWeightChecked() [blocked] / weightDiscBlock()" style="text;html=1;align=center;verticalAlign=middle;resizable=0;points=[];autosize=1;strokeColor=none;fillColor=none;fontColor=#330033;" parent="fTOtLGZc1tBef4jWmARQ-1" vertex="1">
          <mxGeometry x="570" y="470" width="280" height="20" as="geometry" />
        </mxCell>
        <mxCell id="NH1Lx-iVMqcuKH-KqPFO-14" value="&lt;font color=&quot;#000000&quot;&gt;getProduct() / [!ProductDatabases.BARCODED_PRODUCT_DATABASE.containsKey(barcode)]&lt;/font&gt;" style="text;html=1;align=center;verticalAlign=middle;resizable=0;points=[];autosize=1;strokeColor=none;fillColor=none;fontColor=#330033;" parent="fTOtLGZc1tBef4jWmARQ-1" vertex="1">
          <mxGeometry x="504" y="720" width="530" height="20" as="geometry" />
        </mxCell>
        <mxCell id="kdNAqh6HAP15rloX-2TB-0" value="" style="endArrow=classic;html=1;rounded=0;fontSize=13;exitX=0;exitY=0.25;exitDx=0;exitDy=0;" parent="fTOtLGZc1tBef4jWmARQ-1" source="fTOtLGZc1tBef4jWmARQ-7" edge="1">
          <mxGeometry width="50" height="50" relative="1" as="geometry">
            <mxPoint x="440" y="510" as="sourcePoint" />
            <mxPoint x="440" y="540" as="targetPoint" />
            <Array as="points">
              <mxPoint x="320" y="505" />
              <mxPoint x="320" y="540" />
            </Array>
          </mxGeometry>
        </mxCell>
        <mxCell id="kdNAqh6HAP15rloX-2TB-2" value="notifiedItemAdded() [!currentItemBagged]" style="text;html=1;align=center;verticalAlign=middle;resizable=0;points=[];autosize=1;strokeColor=none;fillColor=none;fontColor=#000000;" parent="fTOtLGZc1tBef4jWmARQ-1" vertex="1">
          <mxGeometry x="65" y="504" width="240" height="20" as="geometry" />
        </mxCell>
        <mxCell id="kdNAqh6HAP15rloX-2TB-3" value="notifiedPLUCodedItemAdded() [!currentItemBagged]" style="text;html=1;align=center;verticalAlign=middle;resizable=0;points=[];autosize=1;strokeColor=none;fillColor=none;fontColor=#000000;" parent="fTOtLGZc1tBef4jWmARQ-1" vertex="1">
          <mxGeometry x="10" y="530" width="290" height="20" as="geometry" />
        </mxCell>
        <mxCell id="kdNAqh6HAP15rloX-2TB-6" value="notifiedItemRemoved() [!currentItemRemoved]" style="text;html=1;align=center;verticalAlign=middle;resizable=0;points=[];autosize=1;strokeColor=none;fillColor=none;fontColor=#000000;" parent="fTOtLGZc1tBef4jWmARQ-1" vertex="1">
          <mxGeometry x="40" y="550" width="260" height="20" as="geometry" />
        </mxCell>
        <mxCell id="kdNAqh6HAP15rloX-2TB-7" value="CheckOut" style="rounded=1;whiteSpace=wrap;html=1;arcSize=24;shadow=0;comic=0;labelBackgroundColor=none;fontFamily=Verdana;fontSize=12;align=center;" parent="fTOtLGZc1tBef4jWmARQ-1" vertex="1">
          <mxGeometry x="290" y="680" width="120" height="60" as="geometry" />
        </mxCell>
        <mxCell id="kdNAqh6HAP15rloX-2TB-8" value="" style="endArrow=classic;html=1;rounded=0;fontSize=13;exitX=0.5;exitY=1;exitDx=0;exitDy=0;entryX=0.5;entryY=0;entryDx=0;entryDy=0;" parent="fTOtLGZc1tBef4jWmARQ-1" target="kdNAqh6HAP15rloX-2TB-7" edge="1">
          <mxGeometry width="50" height="50" relative="1" as="geometry">
            <mxPoint x="449" y="549.51" as="sourcePoint" />
            <mxPoint x="449.9999999999998" y="760" as="targetPoint" />
          </mxGeometry>
        </mxCell>
        <mxCell id="kdNAqh6HAP15rloX-2TB-9" value="[isCheckingOut]" style="text;html=1;align=center;verticalAlign=middle;resizable=0;points=[];autosize=1;strokeColor=none;fillColor=none;fontColor=#000000;" parent="fTOtLGZc1tBef4jWmARQ-1" vertex="1">
          <mxGeometry x="290" y="610" width="100" height="20" as="geometry" />
        </mxCell>
      </root>
    </mxGraphModel>
  </diagram>
  <diagram id="-k2uZ2-bx-JdpeP6dKKt" name="Scanning/Bagging State Diagram">
    <mxGraphModel dx="1892" dy="1292" grid="1" gridSize="10" guides="1" tooltips="1" connect="1" arrows="1" fold="1" page="1" pageScale="1" pageWidth="827" pageHeight="1169" math="0" shadow="0">
      <root>
        <mxCell id="0" />
        <mxCell id="1" parent="0" />
        <mxCell id="NpWGflrXiDKqbNfE4RXM-1" value="Inputting Product Info" style="rounded=1;whiteSpace=wrap;html=1;arcSize=24;shadow=0;comic=0;labelBackgroundColor=none;fontFamily=Verdana;fontSize=12;align=center;" vertex="1" parent="1">
          <mxGeometry x="120" y="524" width="120" height="60" as="geometry" />
        </mxCell>
        <mxCell id="NpWGflrXiDKqbNfE4RXM-2" style="edgeStyle=orthogonalEdgeStyle;rounded=0;orthogonalLoop=1;jettySize=auto;html=1;endArrow=openThin;endFill=0;exitX=1;exitY=0.5;exitDx=0;exitDy=0;" edge="1" parent="1" target="NpWGflrXiDKqbNfE4RXM-1" source="NpWGflrXiDKqbNfE4RXM-3">
          <mxGeometry relative="1" as="geometry">
            <mxPoint x="80" y="370" as="sourcePoint" />
            <Array as="points" />
          </mxGeometry>
        </mxCell>
        <mxCell id="NpWGflrXiDKqbNfE4RXM-3" value="" style="shape=ellipse;html=1;fillColor=#000000;fontSize=18;fontColor=#ffffff;" vertex="1" parent="1">
          <mxGeometry x="20" y="534" width="40" height="40" as="geometry" />
        </mxCell>
        <mxCell id="o7NFmcVlY4ACnPR-LDHb-1" value="CheckOut" style="rounded=1;whiteSpace=wrap;html=1;arcSize=24;shadow=0;comic=0;labelBackgroundColor=none;fontFamily=Verdana;fontSize=12;align=center;" vertex="1" parent="1">
          <mxGeometry x="120" y="340.49" width="120" height="60" as="geometry" />
        </mxCell>
        <mxCell id="o7NFmcVlY4ACnPR-LDHb-2" value="" style="endArrow=classic;html=1;rounded=0;fontSize=13;exitX=0.5;exitY=0;exitDx=0;exitDy=0;entryX=0.5;entryY=1;entryDx=0;entryDy=0;" edge="1" parent="1" target="o7NFmcVlY4ACnPR-LDHb-1" source="NpWGflrXiDKqbNfE4RXM-1">
          <mxGeometry width="50" height="50" relative="1" as="geometry">
            <mxPoint x="279" y="210" as="sourcePoint" />
            <mxPoint x="279.9999999999998" y="420.49" as="targetPoint" />
          </mxGeometry>
        </mxCell>
        <mxCell id="o7NFmcVlY4ACnPR-LDHb-3" value="[isCheckingOut]" style="text;html=1;align=center;verticalAlign=middle;resizable=0;points=[];autosize=1;strokeColor=none;fillColor=none;fontColor=#000000;" vertex="1" parent="1">
          <mxGeometry x="80" y="450" width="100" height="20" as="geometry" />
        </mxCell>
        <mxCell id="EfKRUSeT7DAeigjbWymK-1" value="&lt;div&gt;&lt;span&gt;&lt;font style=&quot;font-size: 12px&quot;&gt;ProductNotFound&lt;/font&gt;&lt;/span&gt;&lt;/div&gt;&lt;div&gt;&lt;span&gt;&lt;font style=&quot;font-size: 12px&quot;&gt;&lt;br&gt;&lt;/font&gt;&lt;/span&gt;&lt;/div&gt;&lt;div&gt;&lt;span&gt;&lt;font style=&quot;font-size: 12px&quot;&gt;do/warn&lt;/font&gt;&lt;/span&gt;&lt;/div&gt;" style="rounded=1;whiteSpace=wrap;html=1;arcSize=24;shadow=0;comic=0;labelBackgroundColor=none;fontFamily=Verdana;fontSize=12;align=center;" vertex="1" parent="1">
          <mxGeometry x="280" y="790" width="120" height="70" as="geometry" />
        </mxCell>
        <mxCell id="54ZN_qQZgjbkRGOfgRmF-1" style="edgeStyle=orthogonalEdgeStyle;rounded=0;orthogonalLoop=1;jettySize=auto;html=1;exitX=0.5;exitY=1;exitDx=0;exitDy=0;entryX=0.5;entryY=0;entryDx=0;entryDy=0;fontColor=#000000;" edge="1" parent="1" source="NpWGflrXiDKqbNfE4RXM-1" target="EfKRUSeT7DAeigjbWymK-1">
          <mxGeometry relative="1" as="geometry">
            <Array as="points">
              <mxPoint x="210" y="584" />
              <mxPoint x="210" y="730" />
              <mxPoint x="340" y="730" />
            </Array>
            <mxPoint x="260" y="480" as="sourcePoint" />
            <mxPoint x="560" y="970" as="targetPoint" />
          </mxGeometry>
        </mxCell>
        <mxCell id="gcrbaS99dpo5k6FW4JiD-2" value="getProduct() [&lt;span style=&quot;color: rgb(36 , 41 , 47) ; background-color: rgb(255 , 255 , 255)&quot;&gt;!&lt;/span&gt;&lt;span class=&quot;pl-smi&quot; style=&quot;box-sizing: border-box ; color: rgb(36 , 41 , 47) ; background-color: rgb(255 , 255 , 255)&quot;&gt;ProductDatabases&lt;/span&gt;&lt;span style=&quot;color: rgb(36 , 41 , 47) ; background-color: rgb(255 , 255 , 255)&quot;&gt;.&lt;/span&gt;&lt;span class=&quot;pl-c1&quot; style=&quot;box-sizing: border-box ; background-color: rgb(255 , 255 , 255)&quot;&gt;&lt;font color=&quot;#24292f&quot;&gt;BARCODED_DATABASE.&lt;/font&gt;&lt;/span&gt;&lt;span class=&quot;pl-en&quot; style=&quot;box-sizing: border-box ; background-color: rgb(255 , 255 , 255)&quot;&gt;containsKey&lt;/span&gt;&lt;span style=&quot;color: rgb(36 , 41 , 47) ; background-color: rgb(255 , 255 , 255)&quot;&gt;(-&lt;/span&gt;&lt;span style=&quot;color: rgb(36 , 41 , 47) ; background-color: rgb(255 , 255 , 255)&quot;&gt;)]&lt;br&gt;&lt;/span&gt;getProduct() [&lt;span style=&quot;color: rgb(36 , 41 , 47) ; background-color: rgb(255 , 255 , 255)&quot;&gt;!&lt;/span&gt;&lt;span class=&quot;pl-smi&quot; style=&quot;box-sizing: border-box ; color: rgb(36 , 41 , 47) ; background-color: rgb(255 , 255 , 255)&quot;&gt;ProductDatabases&lt;/span&gt;&lt;span style=&quot;color: rgb(36 , 41 , 47) ; background-color: rgb(255 , 255 , 255)&quot;&gt;.&lt;/span&gt;&lt;span class=&quot;pl-c1&quot; style=&quot;box-sizing: border-box ; background-color: rgb(255 , 255 , 255)&quot;&gt;PLU_PRODUCT_DATABASE&lt;/span&gt;&lt;span style=&quot;color: rgb(36 , 41 , 47) ; background-color: rgb(255 , 255 , 255)&quot;&gt;.&lt;/span&gt;&lt;span class=&quot;pl-en&quot; style=&quot;box-sizing: border-box ; background-color: rgb(255 , 255 , 255)&quot;&gt;containsKey&lt;/span&gt;&lt;span style=&quot;color: rgb(36 , 41 , 47) ; background-color: rgb(255 , 255 , 255)&quot;&gt;(-&lt;/span&gt;&lt;span style=&quot;color: rgb(36 , 41 , 47) ; background-color: rgb(255 , 255 , 255)&quot;&gt;)]&lt;/span&gt;&lt;span style=&quot;color: rgb(36 , 41 , 47) ; background-color: rgb(255 , 255 , 255)&quot;&gt;&lt;br&gt;&lt;/span&gt;" style="text;html=1;strokeColor=none;fillColor=none;align=center;verticalAlign=middle;whiteSpace=wrap;rounded=0;" vertex="1" parent="1">
          <mxGeometry x="210" y="660" width="430" height="80" as="geometry" />
        </mxCell>
        <mxCell id="WyKab0dgmx0HZ2ge3ANN-1" value="Customer Update Cart and Bagged Item&lt;span style=&quot;color: rgba(0 , 0 , 0 , 0) ; font-family: monospace ; font-size: 0px&quot;&gt;%3CmxGraphModel%3E%3Croot%3E%3CmxCell%20id%3D%220%22%2F%3E%3CmxCell%20id%3D%221%22%20parent%3D%220%22%2F%3E%3CmxCell%20id%3D%222%22%20value%3D%22SelfCheckoutStation%20Unblocked%22%20style%3D%22rounded%3D1%3BwhiteSpace%3Dwrap%3Bhtml%3D1%3BarcSize%3D24%3Bshadow%3D0%3Bcomic%3D0%3BlabelBackgroundColor%3Dnone%3BfontFamily%3DVerdana%3BfontSize%3D12%3Balign%3Dcenter%3B%22%20vertex%3D%221%22%20parent%3D%221%22%3E%3CmxGeometry%20x%3D%22850%22%20y%3D%22270%22%20width%3D%22140%22%20height%3D%2260%22%20as%3D%22geometry%22%2F%3E%3C%2FmxCell%3E%3C%2Froot%3E%3C%2FmxGraphModel%3E&lt;/span&gt;" style="rounded=1;whiteSpace=wrap;html=1;arcSize=24;shadow=0;comic=0;labelBackgroundColor=none;fontFamily=Verdana;fontSize=12;align=center;" vertex="1" parent="1">
          <mxGeometry x="50" y="920" width="120" height="60" as="geometry" />
        </mxCell>
        <mxCell id="M91Wu5Nlnq-baVLvYk5D-1" style="edgeStyle=orthogonalEdgeStyle;rounded=0;orthogonalLoop=1;jettySize=auto;html=1;entryX=0.75;entryY=0;entryDx=0;entryDy=0;fontFamily=Helvetica;" edge="1" parent="1" source="NpWGflrXiDKqbNfE4RXM-1" target="WyKab0dgmx0HZ2ge3ANN-1">
          <mxGeometry relative="1" as="geometry">
            <mxPoint x="180" y="760" as="sourcePoint" />
            <mxPoint x="141.03999999999996" y="1100" as="targetPoint" />
          </mxGeometry>
        </mxCell>
        <mxCell id="VPF-Cm-7LtLzxEhLauX7-1" value="&lt;span style=&quot;color: rgb(0 , 0 , 0) ; font-family: &amp;#34;helvetica&amp;#34; ; font-size: 12px ; font-style: normal ; font-weight: 400 ; letter-spacing: normal ; text-align: left ; text-indent: 0px ; text-transform: none ; word-spacing: 0px ; background-color: rgb(248 , 249 , 250) ; display: inline ; float: none&quot;&gt;cartTotal.add() /&amp;nbsp;&lt;span style=&quot;font-family: &amp;#34;helvetica&amp;#34; ; text-align: center&quot;&gt;[&lt;/span&gt;&lt;span class=&quot;pl-smi&quot; style=&quot;font-family: &amp;#34;helvetica&amp;#34; ; text-align: center ; box-sizing: border-box ; color: rgb(36 , 41 , 47) ; background-color: rgb(255 , 255 , 255)&quot;&gt;ProductDatabases&lt;/span&gt;&lt;span style=&quot;font-family: &amp;#34;helvetica&amp;#34; ; text-align: center ; color: rgb(36 , 41 , 47) ; background-color: rgb(255 , 255 , 255)&quot;&gt;.PLU_PRODUCT&lt;/span&gt;&lt;span class=&quot;pl-c1&quot; style=&quot;font-family: &amp;#34;helvetica&amp;#34; ; text-align: center ; box-sizing: border-box ; background-color: rgb(255 , 255 , 255)&quot;&gt;&lt;font color=&quot;#24292f&quot;&gt;_DATABASE.&lt;/font&gt;&lt;/span&gt;&lt;span class=&quot;pl-en&quot; style=&quot;font-family: &amp;#34;helvetica&amp;#34; ; text-align: center ; box-sizing: border-box ; background-color: rgb(255 , 255 , 255)&quot;&gt;containsKey&lt;/span&gt;&lt;span style=&quot;font-family: &amp;#34;helvetica&amp;#34; ; text-align: center ; color: rgb(36 , 41 , 47) ; background-color: rgb(255 , 255 , 255)&quot;&gt;(&lt;/span&gt;&lt;span style=&quot;font-family: &amp;#34;helvetica&amp;#34; ; text-align: center ; color: rgb(36 , 41 , 47) ; background-color: rgb(255 , 255 , 255)&quot;&gt;)]&lt;br&gt;&lt;/span&gt;cartTotal.add() /&amp;nbsp;&lt;span style=&quot;text-align: center&quot;&gt;[&lt;/span&gt;&lt;span class=&quot;pl-smi&quot; style=&quot;text-align: center ; box-sizing: border-box ; color: rgb(36 , 41 , 47) ; background-color: rgb(255 , 255 , 255)&quot;&gt;ProductDatabases&lt;/span&gt;&lt;span style=&quot;text-align: center ; color: rgb(36 , 41 , 47) ; background-color: rgb(255 , 255 , 255)&quot;&gt;.&lt;/span&gt;&lt;span class=&quot;pl-c1&quot; style=&quot;text-align: center ; box-sizing: border-box ; background-color: rgb(255 , 255 , 255)&quot;&gt;&lt;font color=&quot;#24292f&quot;&gt;BARCODED_DATABASE.&lt;/font&gt;&lt;/span&gt;&lt;span class=&quot;pl-en&quot; style=&quot;text-align: center ; box-sizing: border-box ; background-color: rgb(255 , 255 , 255)&quot;&gt;containsKey&lt;/span&gt;&lt;span style=&quot;text-align: center ; color: rgb(36 , 41 , 47) ; background-color: rgb(255 , 255 , 255)&quot;&gt;(&lt;/span&gt;&lt;span style=&quot;text-align: center ; color: rgb(36 , 41 , 47) ; background-color: rgb(255 , 255 , 255)&quot;&gt;)]&lt;/span&gt;&lt;br&gt;&lt;/span&gt;" style="text;whiteSpace=wrap;html=1;fontColor=#000000;" vertex="1" parent="1">
          <mxGeometry x="150" y="870" width="490" height="30" as="geometry" />
        </mxCell>
        <mxCell id="o5Nf0CviFQehSxX36epc-1" style="edgeStyle=orthogonalEdgeStyle;rounded=0;orthogonalLoop=1;jettySize=auto;html=1;exitX=0.25;exitY=0;exitDx=0;exitDy=0;fontColor=#000000;entryX=0.25;entryY=1;entryDx=0;entryDy=0;" edge="1" parent="1" source="WyKab0dgmx0HZ2ge3ANN-1" target="NpWGflrXiDKqbNfE4RXM-1">
          <mxGeometry relative="1" as="geometry">
            <mxPoint x="166.03999999999996" y="442.02" as="targetPoint" />
            <Array as="points">
              <mxPoint x="80" y="720" />
              <mxPoint x="150" y="720" />
            </Array>
            <mxPoint x="150" y="850" as="sourcePoint" />
          </mxGeometry>
        </mxCell>
        <mxCell id="lvGlSpiem-8R3vkclm3Z-1" value="&lt;meta charset=&quot;utf-8&quot;&gt;&lt;span style=&quot;color: rgb(0, 0, 0); font-family: helvetica; font-size: 12px; font-style: normal; font-weight: 400; letter-spacing: normal; text-align: left; text-indent: 0px; text-transform: none; word-spacing: 0px; background-color: rgb(248, 249, 250); display: inline; float: none;&quot;&gt;addToCart(-) [!blocked]&lt;/span&gt;" style="text;whiteSpace=wrap;html=1;fontSize=13;fontColor=#000000;" vertex="1" parent="1">
          <mxGeometry x="10" y="680" width="150" height="30" as="geometry" />
        </mxCell>
        <mxCell id="bgt2lUJHwOZfvhWHJOQM-1" value="SelfCheckoutStation Blocked" style="rounded=1;whiteSpace=wrap;html=1;arcSize=24;shadow=0;comic=0;labelBackgroundColor=none;fontFamily=Verdana;fontSize=12;align=center;" vertex="1" parent="1">
          <mxGeometry x="700" y="524" width="140" height="60" as="geometry" />
        </mxCell>
        <mxCell id="N5LxE_ATFSh99xz8h-Jp-4" value="&lt;font style=&quot;font-size: 13px&quot;&gt;noWeightChecked() [blocked] / weightDiscBlock()&lt;br&gt;weightChanged() [blocked] / weightDiscBlock()&lt;br&gt;&lt;span&gt;useOwnBags() [blocked] / ownBagBlock()&lt;br&gt;&lt;/span&gt;&lt;span style=&quot;font-size: 12px&quot;&gt;removeFromCart() [! currentItemRemoved] /&amp;nbsp;&lt;/span&gt;&lt;span style=&quot;font-size: 12px&quot;&gt;weightDiscBlock()&lt;/span&gt;&lt;br&gt;&lt;/font&gt;" style="text;html=1;align=center;verticalAlign=middle;resizable=0;points=[];autosize=1;strokeColor=none;fillColor=none;" vertex="1" parent="1">
          <mxGeometry x="330" y="560" width="350" height="60" as="geometry" />
        </mxCell>
        <mxCell id="jwUhA4_uFa6pixc6uzqH-1" value="" style="endArrow=classic;html=1;rounded=0;fontSize=13;exitX=1;exitY=0.5;exitDx=0;exitDy=0;entryX=0;entryY=0.5;entryDx=0;entryDy=0;edgeStyle=orthogonalEdgeStyle;" edge="1" parent="1" source="NpWGflrXiDKqbNfE4RXM-1" target="bgt2lUJHwOZfvhWHJOQM-1">
          <mxGeometry width="50" height="50" relative="1" as="geometry">
            <mxPoint x="290" y="450" as="sourcePoint" />
            <mxPoint x="640" y="490" as="targetPoint" />
          </mxGeometry>
        </mxCell>
        <mxCell id="ieoKLgD7GrhIccJVuHOv-1" value="Attendant Verification Required" style="rounded=1;whiteSpace=wrap;html=1;arcSize=24;shadow=0;comic=0;labelBackgroundColor=none;fontFamily=Verdana;fontSize=12;align=center;" vertex="1" parent="1">
          <mxGeometry x="950" y="720" width="140" height="70" as="geometry" />
        </mxCell>
        <mxCell id="r2ajyoKAATElR71KeQ0Y-1" value="" style="endArrow=classic;html=1;rounded=0;fontSize=13;exitX=0.5;exitY=1;exitDx=0;exitDy=0;edgeStyle=orthogonalEdgeStyle;entryX=0;entryY=0.5;entryDx=0;entryDy=0;" edge="1" parent="1" source="bgt2lUJHwOZfvhWHJOQM-1" target="ieoKLgD7GrhIccJVuHOv-1">
          <mxGeometry width="50" height="50" relative="1" as="geometry">
            <mxPoint x="827" y="620" as="sourcePoint" />
            <mxPoint x="957" y="840.0000000000002" as="targetPoint" />
            <Array as="points">
              <mxPoint x="770" y="755" />
            </Array>
          </mxGeometry>
        </mxCell>
        <mxCell id="v6lHOl1my2QG_gydcQ9y-1" value="&lt;span style=&quot;font-family: , , &amp;#34;sf mono&amp;#34; , &amp;#34;menlo&amp;#34; , &amp;#34;consolas&amp;#34; , &amp;#34;liberation mono&amp;#34; , monospace ; background-color: rgb(255 , 255 , 255)&quot;&gt;notifyWeightDiscBlock()&lt;br&gt;&lt;/span&gt;&lt;span style=&quot;color: rgb(6 , 4 , 10) ; background-color: rgb(255 , 255 , 255)&quot;&gt;notifyOwnBagBlock()&lt;/span&gt;&lt;span style=&quot;font-family: , , &amp;#34;sf mono&amp;#34; , &amp;#34;menlo&amp;#34; , &amp;#34;consolas&amp;#34; , &amp;#34;liberation mono&amp;#34; , monospace ; background-color: rgb(255 , 255 , 255)&quot;&gt;&lt;br&gt;&lt;/span&gt;" style="text;html=1;align=center;verticalAlign=middle;resizable=0;points=[];autosize=1;strokeColor=none;fillColor=none;" vertex="1" parent="1">
          <mxGeometry x="790" y="710" width="140" height="30" as="geometry" />
        </mxCell>
        <mxCell id="nvgaf_gD6pxETmzF0QTy-1" value="Attendant Update Cart&lt;span style=&quot;color: rgba(0 , 0 , 0 , 0) ; font-family: monospace ; font-size: 0px&quot;&gt;%3CmxGraphModel%3E%3Croot%3E%3CmxCell%20id%3D%220%22%2F%3E%3CmxCell%20id%3D%221%22%20parent%3D%220%22%2F%3E%3CmxCell%20id%3D%222%22%20value%3D%22SelfCheckoutStation%20Unblocked%22%20style%3D%22rounded%3D1%3BwhiteSpace%3Dwrap%3Bhtml%3D1%3BarcSize%3D24%3Bshadow%3D0%3Bcomic%3D0%3BlabelBackgroundColor%3Dnone%3BfontFamily%3DVerdana%3BfontSize%3D12%3Balign%3Dcenter%3B%22%20vertex%3D%221%22%20parent%3D%221%22%3E%3CmxGeometry%20x%3D%22850%22%20y%3D%22270%22%20width%3D%22140%22%20height%3D%2260%22%20as%3D%22geometry%22%2F%3E%3C%2FmxCell%3E%3C%2Froot%3E%3C%2FmxGraphModel%3E&lt;/span&gt;" style="rounded=1;whiteSpace=wrap;html=1;arcSize=24;shadow=0;comic=0;labelBackgroundColor=none;fontFamily=Verdana;fontSize=12;align=center;" vertex="1" parent="1">
          <mxGeometry x="1130" y="524" width="120" height="60" as="geometry" />
        </mxCell>
        <mxCell id="u-VUeKC_chFN0y-_8b3N-1" style="edgeStyle=orthogonalEdgeStyle;rounded=0;orthogonalLoop=1;jettySize=auto;html=1;entryX=0.5;entryY=1;entryDx=0;entryDy=0;fontColor=#06040A;exitX=1;exitY=0.5;exitDx=0;exitDy=0;" edge="1" parent="1" source="ieoKLgD7GrhIccJVuHOv-1" target="nvgaf_gD6pxETmzF0QTy-1">
          <mxGeometry relative="1" as="geometry">
            <mxPoint x="1220" y="750.0000000000002" as="sourcePoint" />
            <mxPoint x="1485" y="599.9999999999998" as="targetPoint" />
            <Array as="points">
              <mxPoint x="1190" y="755" />
              <mxPoint x="1190" y="585" />
            </Array>
          </mxGeometry>
        </mxCell>
        <mxCell id="9-Xi51eCd5_hhRgrxnzL-1" value="&lt;span style=&quot;color: rgb(0 , 0 , 0) ; font-family: &amp;#34;helvetica&amp;#34; ; font-size: 12px ; font-style: normal ; font-weight: 400 ; letter-spacing: normal ; text-align: left ; text-indent: 0px ; text-transform: none ; word-spacing: 0px ; background-color: rgb(248 , 249 , 250) ; display: inline ; float: none&quot;&gt;AttendantRemovePurchasedItem()[!currentItemRemoved] / &lt;span style=&quot;font-family: &amp;#34;helvetica&amp;#34; ; text-align: center&quot;&gt;resetWeightOnScale()&lt;/span&gt;&lt;br&gt;&lt;/span&gt;" style="text;whiteSpace=wrap;html=1;fontColor=#000000;" vertex="1" parent="1">
          <mxGeometry x="1200" y="660" width="350" height="30" as="geometry" />
        </mxCell>
        <mxCell id="zf3qm2quP3xSqilMhXxF-1" value="SelfCheckoutStation Unblocked" style="rounded=1;whiteSpace=wrap;html=1;arcSize=24;shadow=0;comic=0;labelBackgroundColor=none;fontFamily=Verdana;fontSize=12;align=center;" vertex="1" parent="1">
          <mxGeometry x="950" y="410" width="140" height="60" as="geometry" />
        </mxCell>
        <mxCell id="L__WTVyWfP4uds5rtHAg-1" value="" style="endArrow=classic;html=1;rounded=0;fontSize=13;entryX=0.5;entryY=1;entryDx=0;entryDy=0;exitX=0.5;exitY=0;exitDx=0;exitDy=0;" edge="1" parent="1" source="ieoKLgD7GrhIccJVuHOv-1" target="zf3qm2quP3xSqilMhXxF-1">
          <mxGeometry width="50" height="50" relative="1" as="geometry">
            <mxPoint x="880" y="740.0000000000002" as="sourcePoint" />
            <mxPoint x="930" y="380" as="targetPoint" />
          </mxGeometry>
        </mxCell>
        <mxCell id="L__WTVyWfP4uds5rtHAg-2" value="" style="endArrow=classic;html=1;rounded=0;fontSize=13;entryX=1;entryY=0.5;entryDx=0;entryDy=0;exitX=0.5;exitY=0;exitDx=0;exitDy=0;" edge="1" parent="1" source="nvgaf_gD6pxETmzF0QTy-1" target="zf3qm2quP3xSqilMhXxF-1">
          <mxGeometry width="50" height="50" relative="1" as="geometry">
            <mxPoint x="1198.57" y="470" as="sourcePoint" />
            <mxPoint x="1198.57" y="200" as="targetPoint" />
            <Array as="points">
              <mxPoint x="1190" y="440" />
            </Array>
          </mxGeometry>
        </mxCell>
        <mxCell id="sBnWS1ull18lG9RISrF9-1" style="edgeStyle=orthogonalEdgeStyle;rounded=0;orthogonalLoop=1;jettySize=auto;html=1;exitX=0;exitY=0.5;exitDx=0;exitDy=0;fontColor=#000000;entryX=0.75;entryY=0;entryDx=0;entryDy=0;" edge="1" parent="1" source="zf3qm2quP3xSqilMhXxF-1" target="NpWGflrXiDKqbNfE4RXM-1">
          <mxGeometry relative="1" as="geometry">
            <mxPoint x="260" y="420" as="targetPoint" />
            <mxPoint x="860" y="350" as="sourcePoint" />
            <Array as="points">
              <mxPoint x="210" y="440" />
            </Array>
          </mxGeometry>
        </mxCell>
        <mxCell id="2HPYPlzzvXZI0VSsp8Mf-1" value="&lt;meta charset=&quot;utf-8&quot;&gt;&lt;span style=&quot;color: rgb(0, 0, 0); font-family: helvetica; font-size: 12px; font-style: normal; font-weight: 400; letter-spacing: normal; text-align: left; text-indent: 0px; text-transform: none; word-spacing: 0px; background-color: rgb(248, 249, 250); display: inline; float: none;&quot;&gt;addToCart(-) [!blocked &amp;amp;&amp;amp; !isCheckingOut]&lt;/span&gt;" style="text;whiteSpace=wrap;html=1;fontSize=13;fontColor=#000000;" vertex="1" parent="1">
          <mxGeometry x="500" y="410" width="250" height="30" as="geometry" />
        </mxCell>
        <mxCell id="7vOIB5bfj2XOAfgxZZMf-1" value="&lt;meta charset=&quot;utf-8&quot;&gt;&lt;span style=&quot;color: rgb(0, 0, 0); font-family: helvetica; font-size: 13px; font-style: normal; font-weight: 400; letter-spacing: normal; text-align: center; text-indent: 0px; text-transform: none; word-spacing: 0px; background-color: rgb(248, 249, 250); display: inline; float: none;&quot;&gt;unblock()&lt;/span&gt;" style="text;whiteSpace=wrap;html=1;fontSize=13;fontColor=#000000;" vertex="1" parent="1">
          <mxGeometry x="1201" y="450" width="80" height="30" as="geometry" />
        </mxCell>
        <mxCell id="7vOIB5bfj2XOAfgxZZMf-2" value="&lt;meta charset=&quot;utf-8&quot;&gt;&lt;span style=&quot;color: rgb(0, 0, 0); font-family: helvetica; font-size: 13px; font-style: normal; font-weight: 400; letter-spacing: normal; text-align: center; text-indent: 0px; text-transform: none; word-spacing: 0px; background-color: rgb(248, 249, 250); display: inline; float: none;&quot;&gt;unblock()&lt;/span&gt;" style="text;whiteSpace=wrap;html=1;fontSize=13;fontColor=#000000;" vertex="1" parent="1">
          <mxGeometry x="950" y="560" width="80" height="30" as="geometry" />
        </mxCell>
      </root>
    </mxGraphModel>
  </diagram>
</mxfile>
